# This file uses centimeters as units for non-parametric coordinates.

mtllib firewood03.mtl
g default
v 0.076878 0.089024 0.332388
v 0.108145 0.068699 0.326060
v 0.129275 0.037730 0.321057
v 0.137065 0.000125 0.318105
v 0.039610 0.095595 0.339177
v -0.035153 0.116205 -0.308745
v -0.003889 0.095880 -0.315073
v 0.017241 0.064910 -0.320083
v 0.025030 0.027307 -0.323042
v -0.072425 0.122776 -0.301963
v 0.041946 -0.000656 0.333926
v -0.069825 0.026461 -0.305728
v 0.001213 0.002004 0.341924
v -0.035230 -0.006153 0.347944
v -0.071872 0.000432 0.354624
v -0.103634 0.021244 0.361055
v 0.032336 0.024121 0.337412
v -0.110824 0.029186 -0.299224
v -0.147261 0.021029 -0.293203
v -0.183905 0.027613 -0.286509
v -0.215669 0.048424 -0.280078
v -0.079695 0.051302 -0.303721
v -0.036677 0.089970 0.351504
v -0.148452 0.117088 -0.288149
v 0.002714 0.061966 0.344202
v -0.028551 0.082291 0.350522
v -0.049679 0.113261 0.355532
v -0.057465 0.150864 0.358484
v 0.039987 0.055395 0.337412
v -0.109318 0.089147 -0.296938
v -0.140585 0.109471 -0.290610
v -0.161716 0.140441 -0.285615
v -0.169503 0.178044 -0.282656
v -0.072047 0.082576 -0.303728
v 0.037389 0.151709 0.341177
v -0.074385 0.178827 -0.298469
v 0.139742 0.075885 0.238638
v 0.170831 0.089693 0.233782
v 0.202281 0.077231 0.227761
v 0.215669 0.045798 0.224084
v 0.203153 0.013808 0.224912
v 0.172061 0.000000 0.229768
v 0.140614 0.012462 0.235796
v 0.127225 0.043895 0.239458
v 0.037215 0.100760 -0.348105
v 0.068306 0.114569 -0.352954
v 0.099756 0.102106 -0.358975
v 0.113145 0.070673 -0.362651
v 0.100627 0.038683 -0.361816
v 0.069533 0.024875 -0.356968
v 0.038086 0.037337 -0.350947
v 0.024696 0.068770 -0.347271
v 0.171388 0.044862 0.231431
v 0.068980 0.069707 -0.354617
v 0.055050 0.144438 0.362651
v 0.086467 0.158141 0.360264
v 0.118250 0.145573 0.356704
v 0.131776 0.114097 0.354045
v 0.119124 0.082149 0.353855
v 0.087699 0.068447 0.356250
v 0.055918 0.081016 0.359817
v 0.042395 0.112492 0.362468
v -0.006256 0.172495 -0.282480
v 0.025169 0.186197 -0.284868
v 0.056950 0.173629 -0.288435
v 0.070474 0.142152 -0.291094
v 0.057820 0.110206 -0.291277
v 0.026399 0.096503 -0.288882
v -0.005384 0.109071 -0.285315
v -0.018908 0.140548 -0.282656
v 0.087053 0.113308 0.357905
v 0.025815 0.141335 -0.286523
vt 0.106205 0.513567
vt 0.106205 0.513567
vt 0.075399 0.513567
vt 0.106205 0.544374
vt 0.075399 0.513567
vt 0.075399 0.544374
vt 0.204449 0.707142
vt 0.106205 0.544374
vt 0.075399 0.513567
vt 0.235255 0.707142
vt 0.204449 0.707142
vt 0.235255 0.737948
vt 0.235255 0.707142
vt 0.204449 0.707142
vt 0.235255 0.737948
vt 0.235255 0.707142
vt 0.235255 0.707142
vt 0.204449 0.707142
vt 0.235255 0.737948
vt 0.204449 0.707142
vt 0.204449 0.737948
vt 0.204449 0.707142
vt 0.204449 0.737948
vt 0.106205 0.513567
vt 0.075399 0.544374
vt 0.235255 0.707142
vt 0.204449 0.707142
vt 0.235255 0.707142
vt 0.106205 0.513567
vt 0.106205 0.513567
vt 0.075399 0.513567
vt 0.106205 0.544374
vt 0.075399 0.513567
vt 0.075399 0.544374
vt 0.106205 0.513567
vt 0.106205 0.544374
vt 0.075399 0.513567
vt 0.075399 0.544374
vt 0.235255 0.707142
vt 0.204449 0.707142
vt 0.235255 0.737948
vt 0.235255 0.707142
vt 0.204449 0.707142
vt 0.235255 0.707142
vt 0.235255 0.707142
vt 0.204449 0.707142
vt 0.235255 0.737948
vt 0.204449 0.707142
vt 0.235255 0.707142
vt 0.204449 0.707142
vt 0.204449 0.707142
vt 0.235255 0.707142
vt 0.204449 0.707142
vt 0.204449 0.737948
vt 0.235255 0.737948
vt 0.204449 0.737948
vt 0.106205 0.513567
vt 0.106205 0.513567
vt 0.075399 0.513567
vt 0.106205 0.544374
vt 0.075399 0.513567
vt 0.075399 0.544374
vt 0.106205 0.513567
vt 0.106205 0.544374
vt 0.075399 0.513567
vt 0.075399 0.544374
vt 0.235255 0.707142
vt 0.204449 0.707142
vt 0.235255 0.737948
vt 0.235255 0.707142
vt 0.204449 0.707142
vt 0.235255 0.707142
vt 0.235255 0.707142
vt 0.204449 0.707142
vt 0.235255 0.737948
vt 0.204449 0.707142
vt 0.235255 0.707142
vt 0.204449 0.707142
vt 0.204449 0.707142
vt 0.235255 0.707142
vt 0.204449 0.707142
vt 0.204449 0.737948
vt 0.235255 0.737948
vt 0.204449 0.737948
vt 0.075399 0.544374
vt 0.075399 0.513567
vt 0.106205 0.544374
vt 0.106205 0.513567
vt 0.106205 0.544374
vt 0.106205 0.513567
vt 0.075399 0.544374
vt 0.075399 0.513567
vt 0.106205 0.544374
vt 0.106205 0.513567
vt 0.106205 0.544374
vt 0.106205 0.513567
vt 0.106205 0.544374
vt 0.106205 0.513567
vt 0.106205 0.544374
vt 0.106205 0.513567
vt 0.106205 0.544374
vt 0.106205 0.513567
vt 0.204449 0.707142
vt 0.235255 0.737948
vt 0.204449 0.707142
vt 0.204449 0.707142
vt 0.204449 0.707142
vt 0.204449 0.707142
vt 0.204449 0.707142
vt 0.204449 0.707142
vt 0.235255 0.707142
vt 0.235255 0.737948
vt 0.204449 0.707142
vt 0.235255 0.707142
vt 0.235255 0.707142
vt 0.235255 0.707142
vt 0.235255 0.707142
vt 0.235255 0.707142
vt 0.235255 0.707142
vt 0.235255 0.707142
vt 0.075399 0.544374
vt 0.075399 0.513567
vt 0.106205 0.544374
vt 0.106205 0.513567
vt 0.106205 0.544374
vt 0.106205 0.513567
vt 0.075399 0.544374
vt 0.075399 0.513567
vt 0.106205 0.544374
vt 0.106205 0.513567
vt 0.106205 0.544374
vt 0.106205 0.513567
vt 0.106205 0.544374
vt 0.106205 0.513567
vt 0.106205 0.544374
vt 0.106205 0.513567
vt 0.106205 0.544374
vt 0.106205 0.513567
vt 0.204449 0.707142
vt 0.235255 0.737948
vt 0.204449 0.707142
vt 0.204449 0.707142
vt 0.204449 0.707142
vt 0.204449 0.707142
vt 0.204449 0.707142
vt 0.204449 0.707142
vt 0.235255 0.707142
vt 0.235255 0.737948
vt 0.204449 0.707142
vt 0.235255 0.707142
vt 0.235255 0.707142
vt 0.235255 0.707142
vt 0.235255 0.707142
vt 0.235255 0.707142
vt 0.235255 0.707142
vt 0.235255 0.707142
vt 0.075399 0.513567
vt 0.106205 0.513567
vt 0.106205 0.544374
vt 0.075399 0.544374
vt 0.106205 0.544374
vt 0.075399 0.544374
vt 0.204449 0.707142
vt 0.235255 0.707142
vt 0.235255 0.737948
vt 0.204449 0.707142
vt 0.235255 0.737948
vt 0.235255 0.737948
vt 0.204449 0.707142
vt 0.235255 0.707142
vt 0.235255 0.737948
vt 0.235255 0.707142
vt 0.235255 0.737948
vt 0.235255 0.737948
vt 0.235255 0.707142
vt 0.235255 0.737948
vt 0.075399 0.513567
vt 0.106205 0.513567
vt 0.106205 0.544374
vt 0.075399 0.544374
vt 0.106205 0.544374
vt 0.075399 0.544374
vt 0.204449 0.707142
vt 0.235255 0.707142
vt 0.235255 0.737948
vt 0.204449 0.707142
vt 0.235255 0.737948
vt 0.235255 0.737948
vt 0.204449 0.707142
vt 0.235255 0.707142
vt 0.235255 0.737948
vt 0.235255 0.707142
vt 0.235255 0.737948
vt 0.235255 0.737948
vt 0.235255 0.707142
vt 0.235255 0.737948
vt 0.075399 0.513567
vt 0.106205 0.513567
vt 0.106205 0.544374
vt 0.075399 0.544374
vt 0.106205 0.544374
vt 0.075399 0.544374
vt 0.204449 0.707142
vt 0.235255 0.707142
vt 0.235255 0.737948
vt 0.204449 0.707142
vt 0.235255 0.737948
vt 0.235255 0.737948
vt 0.204449 0.707142
vt 0.235255 0.707142
vt 0.235255 0.737948
vt 0.235255 0.707142
vt 0.235255 0.737948
vt 0.235255 0.737948
vt 0.235255 0.707142
vt 0.235255 0.737948
vt 0.075399 0.513567
vt 0.106205 0.513567
vt 0.106205 0.544374
vt 0.075399 0.544374
vt 0.075399 0.513567
vt 0.075399 0.544374
vt 0.075399 0.513567
vt 0.075399 0.544374
vt 0.075399 0.513567
vt 0.075399 0.544374
vt 0.075399 0.513567
vt 0.075399 0.544374
vt 0.075399 0.513567
vt 0.075399 0.544374
vt 0.204449 0.707142
vt 0.235255 0.707142
vt 0.235255 0.737948
vt 0.235255 0.707142
vt 0.235255 0.737948
vt 0.235255 0.707142
vt 0.235255 0.737948
vt 0.235255 0.707142
vt 0.235255 0.737948
vt 0.235255 0.707142
vt 0.235255 0.737948
vt 0.235255 0.707142
vt 0.235255 0.737948
vt 0.235255 0.707142
vt 0.235255 0.737948
vt 0.204449 0.707142
vt 0.235255 0.707142
vt 0.235255 0.737948
vt 0.204449 0.707142
vt 0.235255 0.737948
vt 0.204449 0.707142
vt 0.235255 0.737948
vt 0.204449 0.707142
vt 0.235255 0.737948
vt 0.204449 0.707142
vt 0.235255 0.737948
vt 0.204449 0.707142
vt 0.235255 0.737948
vt 0.204449 0.707142
vt 0.235255 0.737948
vt 0.075399 0.513567
vt 0.106205 0.513567
vt 0.106205 0.544374
vt 0.075399 0.544374
vt 0.075399 0.513567
vt 0.075399 0.544374
vt 0.075399 0.513567
vt 0.075399 0.544374
vt 0.075399 0.513567
vt 0.075399 0.544374
vt 0.075399 0.513567
vt 0.075399 0.544374
vt 0.075399 0.513567
vt 0.075399 0.544374
vt 0.204449 0.707142
vt 0.235255 0.707142
vt 0.235255 0.737948
vt 0.235255 0.707142
vt 0.235255 0.737948
vt 0.235255 0.707142
vt 0.235255 0.737948
vt 0.235255 0.707142
vt 0.235255 0.737948
vt 0.235255 0.707142
vt 0.235255 0.737948
vt 0.235255 0.707142
vt 0.235255 0.737948
vt 0.235255 0.707142
vt 0.235255 0.737948
vt 0.204449 0.707142
vt 0.235255 0.707142
vt 0.235255 0.737948
vt 0.204449 0.707142
vt 0.235255 0.737948
vt 0.204449 0.707142
vt 0.235255 0.737948
vt 0.204449 0.707142
vt 0.235255 0.737948
vt 0.204449 0.707142
vt 0.235255 0.737948
vt 0.204449 0.707142
vt 0.235255 0.737948
vt 0.204449 0.707142
vt 0.235255 0.737948
vn 0.361292 0.932154 -0.023614
vn 0.686811 0.721313 -0.089435
vn 0.686820 0.721304 -0.089437
vn 0.361287 0.932156 -0.023613
vn 0.906166 0.398566 -0.141449
vn 0.906168 0.398563 -0.141449
vn 0.964119 0.212233 -0.159474
vn 0.964119 0.212233 -0.159474
vn 0.175566 0.984406 0.011056
vn 0.175566 0.984406 0.011056
vn 0.166629 -0.047341 0.984883
vn 0.169176 -0.049014 0.984366
vn 0.167022 -0.046881 0.984838
vn 0.164865 -0.044758 0.985300
vn 0.164260 -0.043327 0.985465
vn 0.170551 -0.049554 0.984102
vn -0.174726 0.034419 -0.984015
vn -0.177441 0.036137 -0.983468
vn -0.176947 0.036556 -0.983541
vn -0.179168 0.038682 -0.983058
vn -0.179771 0.040110 -0.982891
vn -0.173152 0.033801 -0.984315
vn 0.001143 -0.999093 -0.042556
vn 0.001143 -0.999093 -0.042556
vn 0.001143 -0.999093 -0.042556
vn 0.001143 -0.999093 -0.042556
vn -0.984768 -0.033226 0.170670
vn -0.984768 -0.033226 0.170670
vn -0.984768 -0.033226 0.170670
vn -0.984768 -0.033226 0.170670
vn 0.392552 -0.913447 -0.107321
vn 0.013719 -0.998904 -0.044747
vn 0.013732 -0.998904 -0.044749
vn 0.392557 -0.913445 -0.107322
vn -0.367560 -0.929668 0.024815
vn -0.367552 -0.929672 0.024813
vn -0.538787 -0.840407 0.058521
vn -0.538787 -0.840407 0.058521
vn 0.561272 -0.816922 -0.132711
vn 0.561272 -0.816922 -0.132711
vn 0.171818 -0.033873 0.984546
vn 0.168994 -0.034483 0.985014
vn 0.171907 -0.034457 0.984510
vn 0.174810 -0.034423 0.984000
vn 0.176238 -0.034994 0.983725
vn 0.167729 -0.035049 0.985210
vn -0.175014 0.048968 -0.983347
vn -0.172233 0.049623 -0.983805
vn -0.172121 0.048983 -0.983857
vn -0.169234 0.049007 -0.984357
vn -0.167651 0.048374 -0.984659
vn -0.176384 0.048354 -0.983133
vn -0.697377 0.700496 0.151560
vn -0.697377 0.700496 0.151560
vn -0.697377 0.700496 0.151560
vn -0.697377 0.700496 0.151560
vn 0.678245 0.729597 -0.087586
vn 0.678245 0.729597 -0.087586
vn 0.678245 0.729597 -0.087586
vn 0.678245 0.729597 -0.087586
vn -0.361276 -0.932160 0.023611
vn -0.686818 -0.721306 0.089437
vn -0.686826 -0.721298 0.089439
vn -0.361283 -0.932157 0.023612
vn -0.906178 -0.398537 0.141455
vn -0.906181 -0.398530 0.141456
vn -0.964130 -0.212177 0.159483
vn -0.964130 -0.212177 0.159483
vn -0.175559 -0.984407 -0.011057
vn -0.175559 -0.984407 -0.011057
vn 0.177369 -0.036076 0.983483
vn 0.174747 -0.034352 0.984014
vn 0.176940 -0.036484 0.983545
vn 0.179132 -0.038605 0.983067
vn 0.179698 -0.039947 0.982910
vn 0.173338 -0.033798 0.984282
vn -0.169143 0.049083 -0.984369
vn -0.166506 0.047328 -0.984904
vn -0.166936 0.046948 -0.984849
vn -0.164727 0.044821 -0.985320
vn -0.164187 0.043543 -0.985468
vn -0.170525 0.049626 -0.984103
vn -0.001142 0.999093 0.042555
vn -0.001142 0.999093 0.042555
vn -0.001142 0.999093 0.042555
vn -0.001142 0.999093 0.042555
vn 0.984767 0.033233 -0.170672
vn 0.984767 0.033233 -0.170672
vn 0.984767 0.033233 -0.170672
vn 0.984767 0.033233 -0.170672
vn -0.013725 0.998904 0.044748
vn -0.706185 0.691363 0.152711
vn -0.706193 0.691354 0.152712
vn -0.013739 0.998904 0.044750
vn 0.686810 0.721314 -0.089431
vn 0.686803 0.721321 -0.089429
vn 0.985005 0.021217 -0.171219
vn 0.985004 0.021249 -0.171217
vn 0.706187 -0.691361 -0.152710
vn 0.706161 -0.691388 -0.152706
vn 0.013702 -0.998905 -0.044743
vn 0.013665 -0.998905 -0.044737
vn -0.686815 -0.721309 0.089436
vn -0.686804 -0.721320 0.089434
vn -0.985004 -0.021204 0.171224
vn -0.985004 -0.021199 0.171224
vn 0.177564 -0.047232 0.982975
vn 0.172050 -0.041737 0.984204
vn 0.172167 -0.049456 0.983826
vn 0.166622 -0.047378 0.984882
vn 0.164382 -0.042012 0.985502
vn 0.166636 -0.036383 0.985347
vn 0.172065 -0.033902 0.984502
vn 0.177356 -0.035949 0.983490
vn 0.179566 -0.041572 0.982867
vn -0.171998 0.041712 -0.984214
vn -0.166520 0.036275 -0.985371
vn -0.171837 0.033903 -0.984542
vn -0.177316 0.036143 -0.983490
vn -0.179715 0.041568 -0.982840
vn -0.177512 0.047045 -0.982993
vn -0.172048 0.049472 -0.983845
vn -0.166623 0.047381 -0.984882
vn -0.164371 0.041901 -0.985508
vn -0.013720 0.998904 0.044746
vn -0.713549 0.693721 0.097975
vn -0.713576 0.693692 0.097976
vn -0.013681 0.998905 0.044743
vn 0.694188 0.718957 -0.034695
vn 0.694180 0.718965 -0.034694
vn 0.995429 0.017885 -0.093810
vn 0.995429 0.017920 -0.093809
vn 0.713590 -0.693679 -0.097975
vn 0.713562 -0.693707 -0.097974
vn 0.013721 -0.998904 -0.044745
vn 0.013679 -0.998905 -0.044741
vn -0.694173 -0.718972 0.034695
vn -0.694181 -0.718964 0.034696
vn -0.995430 -0.017818 0.093817
vn -0.995429 -0.017867 0.093814
vn 0.100080 -0.048627 0.993790
vn 0.094490 -0.043238 0.994586
vn 0.094474 -0.051066 0.994217
vn 0.088937 -0.048960 0.994833
vn 0.086666 -0.043517 0.995287
vn 0.088954 -0.037822 0.995317
vn 0.094477 -0.035348 0.994899
vn 0.099979 -0.037537 0.994281
vn 0.102333 -0.043015 0.993820
vn -0.094597 0.043208 -0.994578
vn -0.088918 0.037627 -0.995328
vn -0.094365 0.035350 -0.994910
vn -0.100059 0.037615 -0.994270
vn -0.102492 0.043124 -0.993799
vn -0.100269 0.048657 -0.993770
vn -0.094696 0.051066 -0.994196
vn -0.089131 0.048927 -0.994818
vn -0.086823 0.043287 -0.995283
s 1
g SFMC_geo12437 Main_grp
usemtl lambert2SG
f 1/157/1 2/158/2 7/159/3 6/160/4
f 7/3/3 2/2/2 3/161/5 8/162/6
f 3/5/5 4/24/7 9/8/8 8/6/6
f 5/9/9 1/1/1 6/4/4 10/25/10
s 2
f 2/163/11 1/164/12 11/165/13
f 3/166/14 2/10/11 11/167/13
f 4/14/15 3/13/14 11/168/13
f 1/11/12 5/26/16 11/12/13
s 3
f 6/169/17 7/170/18 12/171/19
f 7/18/18 8/172/20 12/173/19
f 8/20/20 9/28/21 12/174/19
f 10/27/22 6/17/17 12/19/19
s off
f 4/7/23 11/175/24 12/176/25 9/21/26
f 12/22/27 11/16/28 5/15/29 10/23/30
s 4
f 13/177/31 14/178/32 19/179/33 18/180/34
f 19/31/33 14/30/32 15/181/35 20/182/36
f 15/33/35 16/35/37 21/36/38 20/34/36
f 17/37/39 13/29/31 18/32/34 22/38/40
s 5
f 14/183/41 13/184/42 23/185/43
f 15/186/44 14/39/41 23/187/43
f 16/43/45 15/42/44 23/188/43
f 13/40/42 17/44/46 23/41/43
s 6
f 18/189/47 19/190/48 24/191/49
f 19/46/48 20/192/50 24/193/49
f 20/48/50 21/49/51 24/194/49
f 22/50/52 18/45/47 24/47/49
s off
f 16/51/53 23/195/54 24/196/55 21/54/56
f 24/53/57 23/52/58 17/55/59 22/56/60
s 7
f 25/197/61 26/198/62 31/199/63 30/200/64
f 31/59/63 26/58/62 27/201/65 32/202/66
f 27/61/65 28/63/67 33/64/68 32/62/66
f 29/65/69 25/57/61 30/60/64 34/66/70
s 8
f 26/203/71 25/204/72 35/205/73
f 27/206/74 26/67/71 35/207/73
f 28/71/75 27/70/74 35/208/73
f 25/68/72 29/72/76 35/69/73
s 9
f 30/209/77 31/210/78 36/211/79
f 31/74/78 32/212/80 36/213/79
f 32/76/80 33/77/81 36/214/79
f 34/78/82 30/73/77 36/75/79
s off
f 28/79/83 35/215/84 36/216/85 33/82/86
f 36/81/87 35/80/88 29/83/89 34/84/90
s 10
f 46/217/91 45/218/92 37/219/93 38/220/94
f 47/221/95 46/88/91 38/87/94 39/222/96
f 48/92/97 47/90/95 39/89/96 40/91/98
f 49/223/99 48/94/97 40/93/98 41/224/100
f 50/225/101 49/96/99 41/95/100 42/226/102
f 51/227/103 50/98/101 42/97/102 43/228/104
f 52/229/105 51/100/103 43/99/104 44/230/106
f 45/86/92 52/102/105 44/101/106 37/85/93
s 11
f 37/231/107 53/232/108 38/233/109
f 38/105/109 53/234/108 39/235/110
f 39/106/110 53/236/108 40/237/111
f 40/107/111 53/238/108 41/239/112
f 41/108/112 53/240/108 42/241/113
f 42/109/113 53/242/108 43/243/114
f 43/110/114 53/244/108 44/245/115
f 37/103/107 44/111/115 53/104/108
s 12
f 54/246/116 45/247/117 46/248/118
f 54/249/116 46/114/118 47/250/119
f 54/251/116 47/115/119 48/252/120
f 54/253/116 48/116/120 49/254/121
f 54/255/116 49/117/121 50/256/122
f 54/257/116 50/118/122 51/258/123
f 54/259/116 51/119/123 52/260/124
f 54/113/116 52/120/124 45/112/117
s 13
f 64/261/125 63/262/126 55/263/127 56/264/128
f 65/265/129 64/124/125 56/123/128 57/266/130
f 66/128/131 65/126/129 57/125/130 58/127/132
f 67/267/133 66/130/131 58/129/132 59/268/134
f 68/269/135 67/132/133 59/131/134 60/270/136
f 69/271/137 68/134/135 60/133/136 61/272/138
f 70/273/139 69/136/137 61/135/138 62/274/140
f 63/122/126 70/138/139 62/137/140 55/121/127
s 14
f 55/275/141 71/276/142 56/277/143
f 56/141/143 71/278/142 57/279/144
f 57/142/144 71/280/142 58/281/145
f 58/143/145 71/282/142 59/283/146
f 59/144/146 71/284/142 60/285/147
f 60/145/147 71/286/142 61/287/148
f 61/146/148 71/288/142 62/289/149
f 55/139/141 62/147/149 71/140/142
s 15
f 72/290/150 63/291/151 64/292/152
f 72/293/150 64/150/152 65/294/153
f 72/295/150 65/151/153 66/296/154
f 72/297/150 66/152/154 67/298/155
f 72/299/150 67/153/155 68/300/156
f 72/301/150 68/154/156 69/302/157
f 72/303/150 69/155/157 70/304/158
f 72/149/150 70/156/158 63/148/151
