# This file uses centimeters as units for non-parametric coordinates.

mtllib stone_chair.mtl
g default
v 0.053186 0.375580 -0.243914
v 0.048824 0.561356 0.009205
v 0.049446 0.763275 -0.244030
v 0.049139 0.705582 -0.120214
v 0.048462 0.478745 0.171551
v 0.048279 0.376328 0.246117
v -0.050449 0.375412 -0.243454
v -0.047293 0.478577 0.171953
v -0.047474 0.376175 0.246521
v -0.046928 0.561203 0.009609
v -0.046616 0.705429 -0.119812
v -0.046352 0.763138 -0.243584
v -1.185663 0.381546 0.250563
v -1.142185 0.374741 -0.245182
v -1.142199 0.280182 -0.249680
v -1.180920 0.274323 0.263248
v 1.186172 0.381439 0.247219
v 1.185780 0.275711 0.250969
v 1.145987 0.278015 -0.261406
v 1.140398 0.400909 -0.266478
v -1.142210 0.000000 -0.350080
v -1.144207 0.784103 -0.350090
v -0.241589 0.926336 -0.350086
v -0.241755 0.926355 -0.243565
v -0.567940 0.836517 -0.350075
v -0.568094 0.836609 -0.242504
v -1.026215 0.795486 -0.238487
v -1.140678 0.742996 -0.075874
v -1.140985 0.644775 0.069952
v -1.141354 0.495590 0.187321
v -1.145321 0.000000 0.347961
v -1.042370 0.000000 0.347504
v -1.046284 0.495697 0.186924
v -1.041588 0.000000 -0.236252
v -1.045977 0.646103 0.069931
v -1.045584 0.743256 -0.076246
v 0.242641 0.926336 -0.350086
v 0.242647 0.926355 -0.243582
v 0.568916 0.836517 -0.350098
v 0.569052 0.836609 -0.242498
v 1.138424 0.785217 -0.350109
v 1.027189 0.795486 -0.238474
v 1.143187 0.000000 -0.350092
v 1.141649 0.742996 -0.075846
v 1.141989 0.644775 0.069937
v 1.142349 0.495590 0.187344
v 1.146322 0.000000 0.347979
v 1.043383 0.000000 0.347500
v 1.047245 0.495697 0.186928
v 1.042568 0.000000 -0.236214
v 1.046926 0.646103 0.069910
v 1.046572 0.743256 -0.076235
v -1.143356 0.372086 0.187561
v -1.044344 0.372192 0.187140
v 1.144314 0.372086 0.187580
v 1.045294 0.372192 0.187132
vt 0.065652 0.324325
vt 0.106313 0.324325
vt 0.106313 0.365277
vt 0.065652 0.324325
vt 0.106313 0.324325
vt 0.106313 0.365277
vt 0.065652 0.324325
vt 0.106313 0.324325
vt 0.106313 0.365277
vt 0.065652 0.324325
vt 0.106313 0.324325
vt 0.106313 0.365277
vt 0.065652 0.324325
vt 0.106313 0.324325
vt 0.106313 0.365277
vt 0.065652 0.324325
vt 0.106313 0.324325
vt 0.106313 0.365277
vt 0.065652 0.324325
vt 0.106313 0.324325
vt 0.106313 0.365277
vt 0.065652 0.324325
vt 0.106313 0.324325
vt 0.106313 0.365277
vt 0.065652 0.324325
vt 0.106313 0.324325
vt 0.106313 0.365277
vt 0.065652 0.365277
vt 0.065652 0.324325
vt 0.106313 0.324325
vt 0.106313 0.365277
vt 0.065652 0.365277
vt 0.065652 0.324325
vt 0.106313 0.324325
vt 0.106313 0.365277
vt 0.065652 0.365277
vt 0.065652 0.324325
vt 0.106313 0.324325
vt 0.106313 0.365277
vt 0.065652 0.365277
vt 0.065652 0.324325
vt 0.106313 0.324325
vt 0.106313 0.365277
vt 0.065652 0.365277
vt 0.065652 0.324325
vt 0.106313 0.324325
vt 0.106313 0.365277
vt 0.065652 0.365277
vt 0.065652 0.324325
vt 0.106313 0.324325
vt 0.106313 0.365277
vt 0.065652 0.365277
vt 0.065652 0.324325
vt 0.106313 0.324325
vt 0.106313 0.365277
vt 0.065652 0.365277
vt 0.065652 0.324325
vt 0.106313 0.324325
vt 0.106313 0.365277
vt 0.065652 0.365277
vt 0.065652 0.324325
vt 0.106313 0.324325
vt 0.106313 0.365277
vt 0.065652 0.365277
vt 0.065652 0.324325
vt 0.106313 0.324325
vt 0.106313 0.365277
vt 0.065652 0.365277
vt 0.065652 0.324325
vt 0.106313 0.324325
vt 0.106313 0.365277
vt 0.065652 0.365277
vt 0.065652 0.324325
vt 0.106313 0.324325
vt 0.106313 0.365277
vt 0.065652 0.324325
vt 0.106313 0.324325
vt 0.106313 0.365277
vt 0.065652 0.324325
vt 0.106313 0.324325
vt 0.106313 0.365277
vt 0.065652 0.324325
vt 0.106313 0.324325
vt 0.106313 0.365277
vt 0.065652 0.324325
vt 0.106313 0.324325
vt 0.106313 0.365277
vt 0.065652 0.365277
vt 0.065652 0.324325
vt 0.106313 0.324325
vt 0.106313 0.365277
vt 0.065652 0.324325
vt 0.106313 0.324325
vt 0.106313 0.365277
vt 0.065652 0.324325
vt 0.106313 0.324325
vt 0.106313 0.365277
vt 0.065652 0.324325
vt 0.106313 0.324325
vt 0.106313 0.365277
vt 0.065652 0.324325
vt 0.106313 0.324325
vt 0.106313 0.365277
vt 0.065652 0.365277
vt 0.065652 0.324325
vt 0.106313 0.324325
vt 0.106313 0.365277
vt 0.065652 0.365277
vt 0.065652 0.324325
vt 0.106313 0.324325
vt 0.106313 0.365277
vt 0.065652 0.365277
vt 0.065652 0.324325
vt 0.106313 0.324325
vt 0.106313 0.365277
vt 0.065652 0.324325
vt 0.106313 0.324325
vt 0.106313 0.365277
vt 0.065652 0.324325
vt 0.106313 0.324325
vt 0.106313 0.365277
vt 0.065652 0.324325
vt 0.106313 0.324325
vt 0.106313 0.365277
vt 0.065652 0.365277
vt 0.065652 0.324325
vt 0.106313 0.324325
vt 0.106313 0.365277
vt 0.065652 0.324325
vt 0.106313 0.324325
vt 0.106313 0.365277
vt 0.065652 0.324325
vt 0.106313 0.324325
vt 0.106313 0.365277
vt 0.065652 0.365277
vt 0.065652 0.324325
vt 0.106313 0.324325
vt 0.106313 0.365277
vt 0.065652 0.365277
vt 0.065652 0.324325
vt 0.106313 0.324325
vt 0.106313 0.365277
vt 0.065652 0.324325
vt 0.106313 0.324325
vt 0.106313 0.365277
vt 0.065652 0.324325
vt 0.106313 0.324325
vt 0.106313 0.365277
vt 0.065652 0.324325
vt 0.106313 0.324325
vt 0.106313 0.365277
vt 0.065652 0.324325
vt 0.106313 0.324325
vt 0.106313 0.365277
vt 0.065652 0.365277
vt 0.065652 0.324325
vt 0.106313 0.324325
vt 0.106313 0.365277
vt 0.065652 0.324325
vt 0.106313 0.324325
vt 0.106313 0.365277
vt 0.065652 0.324325
vt 0.106313 0.324325
vt 0.106313 0.365277
vt 0.065652 0.324325
vt 0.106313 0.324325
vt 0.106313 0.365277
vt 0.065652 0.324325
vt 0.106313 0.324325
vt 0.106313 0.365277
vt 0.065652 0.365277
vt 0.065652 0.324325
vt 0.106313 0.324325
vt 0.106313 0.365277
vt 0.065652 0.365277
vt 0.065652 0.324325
vt 0.106313 0.324325
vt 0.106313 0.365277
vt 0.065652 0.365277
vt 0.065652 0.324325
vt 0.106313 0.324325
vt 0.106313 0.365277
vt 0.065652 0.324325
vt 0.106313 0.324325
vt 0.106313 0.365277
vt 0.065652 0.324325
vt 0.106313 0.324325
vt 0.106313 0.365277
vt 0.065652 0.324325
vt 0.106313 0.324325
vt 0.106313 0.365277
vt 0.065652 0.324325
vt 0.106313 0.324325
vt 0.106313 0.365277
vt 0.065652 0.324325
vt 0.106313 0.324325
vt 0.106313 0.365277
vt 0.065652 0.365277
vt 0.065652 0.324325
vt 0.106313 0.324325
vt 0.106313 0.365277
vt 0.065652 0.365277
vt 0.065652 0.324325
vt 0.106313 0.324325
vt 0.106313 0.365277
vt 0.065652 0.324325
vt 0.106313 0.324325
vt 0.106313 0.365277
vt 0.065652 0.324325
vt 0.106313 0.324325
vt 0.106313 0.365277
vt 0.065652 0.324325
vt 0.106313 0.324325
vt 0.106313 0.365277
vn 0.999935 0.005497 0.010006
vn 0.999914 0.008940 0.009563
vn 0.999928 0.007276 0.009564
vn 0.999901 0.010195 0.009749
vn 0.999920 0.008902 0.008968
vn 0.999929 0.009649 0.006976
vn -0.999940 0.010567 0.002800
vn -0.999937 0.009789 0.005564
vn -0.999940 0.009779 0.004905
vn -0.999922 0.011075 0.005781
vn -0.999952 0.008028 0.005605
vn -0.999963 0.006184 0.006063
vn 0.001447 0.782335 0.622856
vn 0.001453 0.781378 0.624057
vn 0.001290 0.789900 0.613234
vn 0.001296 0.789019 0.614367
vn 0.000500 0.906377 0.422470
vn 0.000500 0.906377 0.422470
vn 0.001278 0.787579 0.616213
vn 0.001271 0.788656 0.614834
vn 0.002421 0.588618 0.808408
vn 0.002421 0.588618 0.808408
vn -0.996344 -0.026649 -0.081169
vn -0.996344 -0.026649 -0.081169
vn -0.996344 -0.026649 -0.081169
vn -0.996344 -0.026649 -0.081169
vn -0.000208 -0.999968 -0.007962
vn -0.000208 -0.999968 -0.007962
vn -0.000208 -0.999968 -0.007962
vn -0.000208 -0.999968 -0.007962
vn -0.005532 0.999906 0.012558
vn -0.005532 0.999906 0.012558
vn -0.005532 0.999906 0.012558
vn -0.005532 0.999906 0.012558
vn 0.996386 0.019453 -0.082679
vn 0.996386 0.019453 -0.082679
vn 0.996386 0.019453 -0.082679
vn 0.996386 0.019453 -0.082679
vn 0.003266 0.077017 0.997024
vn 0.003266 0.077017 0.997024
vn 0.003266 0.077017 0.997024
vn 0.003266 0.077017 0.997024
vn -0.110278 0.993901 -0.000478
vn -0.110660 0.993858 -0.000479
vn 0.110542 0.993871 -0.000386
vn 0.110408 0.993886 -0.000386
vn -0.158801 0.987307 -0.002628
vn -0.158351 0.987379 -0.002635
vn -0.112320 0.991727 0.062146
vn -0.109521 0.992528 0.053788
vn -0.999919 -0.002547 0.012485
vn -0.999998 0.002044 0.000305
vn -0.999972 -0.000714 0.007521
vn -0.999997 0.002221 -0.000495
vn -0.999984 0.004884 -0.002911
vn -0.999950 0.007061 -0.007018
vn 0.003940 0.311704 0.950171
vn 0.004214 0.001844 0.999989
vn 0.004214 0.001844 0.999989
vn 0.003940 0.312046 0.950059
vn 0.999974 0.005245 0.004953
vn 0.999889 0.002927 0.014622
vn 0.999974 0.003907 0.006088
vn 0.997566 -0.009507 0.069076
vn 0.993469 -0.018883 0.112526
vn 0.999960 0.008876 -0.001293
vn 0.999982 0.005881 0.001340
vn -0.004362 0.729308 0.684172
vn -0.100988 0.933033 0.345327
vn -0.098220 0.930838 0.351985
vn -0.004341 0.727715 0.685866
vn -0.002918 0.616145 0.787627
vn -0.002918 0.616145 0.787627
vn 0.004212 0.005089 0.999978
vn 0.008530 0.002645 0.999960
vn 0.001256 0.006865 0.999976
vn 0.000197 0.007724 0.999970
vn -0.000629 0.008785 0.999961
vn -0.000007 -0.000003 -1.000000
vn -0.000001 -0.000001 -1.000000
vn -0.000005 0.000001 -1.000000
vn -0.000005 -0.000001 -1.000000
vn -0.000015 0.000017 -1.000000
vn 0.000028 -0.000012 -1.000000
vn 0.158331 0.987385 -0.001290
vn 0.158764 0.987316 -0.001287
vn 0.109276 0.992454 0.055631
vn 0.111040 0.991954 0.060811
vn 0.999923 0.006065 -0.010825
vn 0.999965 0.004655 -0.007006
vn 0.999976 0.004220 -0.005493
vn 0.999997 0.002241 -0.000588
vn 0.999984 0.004787 -0.002857
vn 0.999951 0.007045 -0.006972
vn 0.999984 0.003461 -0.004492
vn -0.004006 0.395781 0.918336
vn -0.004006 0.395781 0.918336
vn -0.004164 0.312015 0.950068
vn -0.004164 0.311670 0.950181
vn -0.999974 0.005208 0.004951
vn -0.999975 0.003921 0.005961
vn -0.999889 0.002838 0.014639
vn -0.997569 -0.009487 0.069043
vn -0.993460 -0.018886 0.112607
vn -0.999960 0.008803 -0.001302
vn 0.004274 0.729281 0.684201
vn 0.004252 0.727685 0.685899
vn 0.096718 0.929646 0.355533
vn 0.100098 0.932351 0.347421
vn 0.002815 0.616248 0.787547
vn 0.002815 0.616248 0.787547
vn -0.000956 0.007152 0.999974
vn -0.000779 0.007071 0.999975
vn -0.008544 0.002676 0.999960
vn -0.000036 -0.000031 -1.000000
vn -0.000022 -0.000022 -1.000000
vn 0.003789 0.395780 0.918338
vn 0.003789 0.395780 0.918338
vn -0.004449 0.001783 0.999989
vn -0.004449 0.001783 0.999989
vn -0.999984 0.003359 -0.004457
vn -0.999983 0.005736 0.001395
s 1
g polySurface47
usemtl lambert2SG
f 6/1/1 1/2/2 5/3/3
f 1/4/2 2/5/4 5/6/3
f 1/7/2 4/8/5 2/9/4
f 1/10/2 3/11/6 4/12/5
s 2
f 12/13/7 7/14/8 11/15/9
f 7/16/8 10/17/10 11/18/9
f 7/19/8 8/20/11 10/21/10
f 7/22/8 9/23/12 8/24/11
s 3
f 4/25/13 11/26/14 10/27/15 2/28/16
f 3/29/17 12/30/18 11/31/14 4/32/13
f 8/33/19 5/34/20 2/35/16 10/36/15
f 9/37/21 6/38/22 5/39/20 8/40/19
s off
f 13/41/23 14/42/24 15/43/25 16/44/26
f 16/45/27 15/46/28 19/47/29 18/48/30
f 20/49/31 14/50/32 13/51/33 17/52/34
f 17/53/35 18/54/36 19/55/37 20/56/38
f 16/57/39 18/58/40 17/59/41 13/60/42
s 4
f 23/61/43 24/62/44 38/63/45 37/64/46
f 24/65/44 23/66/43 25/67/47 26/68/48
f 26/69/48 25/70/47 22/71/49 27/72/50
s 5
f 22/73/51 21/74/52 28/75/53
f 28/76/53 21/77/52 29/78/54
f 29/79/54 21/80/52 30/81/55
f 30/82/55 21/83/52 53/84/56
s 6
f 54/85/57 33/86/58 30/87/59 53/88/60
s 7
f 33/89/61 34/90/62 35/91/63
f 35/92/63 34/93/62 36/94/64
f 36/95/64 34/96/62 27/97/65
f 34/98/62 54/99/66 32/100/67
s 4
f 35/101/68 36/102/69 28/103/70 29/104/71
f 22/105/49 28/106/70 36/107/69 27/108/50
f 33/109/72 35/110/68 29/111/71 30/112/73
s 8
f 26/113/74 27/114/75 34/115/76
f 24/116/77 34/117/76 38/118/78
f 24/119/77 26/120/74 34/121/76
s 9
f 43/122/79 21/123/80 23/124/81 37/125/82
f 25/126/83 23/127/81 21/128/80
f 22/129/84 25/130/83 21/131/80
s 4
f 38/132/45 40/133/85 39/134/86 37/135/46
f 40/136/85 42/137/87 41/138/88 39/139/86
s 10
f 41/140/89 44/141/90 43/142/91
f 44/143/90 45/144/92 43/145/91
f 45/146/92 46/147/93 43/148/91
f 43/149/91 55/150/94 47/151/95
s 11
f 48/152/96 47/153/97 55/154/98 56/155/99
s 12
f 49/156/100 51/157/101 50/158/102
f 51/159/101 52/160/103 50/161/102
f 52/162/103 42/163/104 50/164/102
f 50/165/102 56/166/105 49/167/100
s 4
f 51/168/106 45/169/107 44/170/108 52/171/109
f 41/172/88 42/173/87 52/174/109 44/175/108
f 49/176/110 46/177/111 45/178/107 51/179/106
s 8
f 40/180/112 50/181/113 42/182/114
f 38/183/78 34/184/76 40/185/112
f 40/186/112 34/187/76 50/188/113
s 9
f 39/189/115 43/190/79 37/191/82
f 41/192/116 43/193/79 39/194/115
s 6
f 32/195/117 54/196/57 53/197/60 31/198/118
s 11
f 56/199/99 55/200/98 46/201/119 49/202/120
s 7
f 34/203/62 33/204/61 54/205/66
s 5
f 53/206/56 21/207/52 31/208/121
s 10
f 46/209/93 55/210/94 43/211/91
s 12
f 50/212/102 48/213/122 56/214/105
