# 3ds Max Wavefront OBJ Exporter v0.97b - (c)2007 guruware
# File Created: 02.11.2017 00:36:01

mtllib door.mtl

#
# object door
#

v  72.5493 0.0645 -6.1031
v  72.5493 4.7146 -6.1031
v  74.2582 4.9086 -6.1031
v  74.2582 0.0645 -6.1031
v  72.5493 6.4927 -5.6031
v  72.5493 4.7146 -5.6031
v  74.2582 4.9086 -5.6031
v  73.8469 5.9290 -5.6031
v  74.2582 0.0645 -5.6031
v  72.5493 0.0645 -5.6031
v  73.8469 5.9290 -6.1031
v  72.5493 6.4927 -6.1031
v  70.8776 0.0645 -6.1031
v  70.8776 4.9086 -6.1031
v  71.2518 5.9290 -5.6031
v  70.8776 4.9086 -5.6031
v  70.8776 0.0645 -5.6031
v  71.2518 5.9290 -6.1031
v  74.0872 0.0000 -6.0017
v  74.0872 4.8850 -6.0017
v  74.3002 4.9086 -6.0017
v  74.3002 0.0000 -6.0017
v  73.7167 5.8471 -5.5017
v  74.0872 4.8850 -5.5017
v  74.3002 4.9086 -5.5017
v  73.8469 5.9936 -5.5017
v  73.8469 5.9936 -6.0017
v  73.7167 5.8471 -6.0017
v  72.5493 6.3324 -6.0017
v  72.5493 6.5573 -6.0017
v  74.0872 0.0000 -5.5017
v  74.3002 0.0000 -5.5017
v  72.5493 6.5573 -5.5017
v  72.5493 6.3324 -5.5017
v  71.0115 0.0000 -6.0017
v  70.7985 0.0000 -6.0017
v  70.7985 4.9086 -6.0017
v  71.0115 4.8850 -6.0017
v  71.3820 5.8471 -5.5017
v  71.2518 5.9936 -5.5017
v  70.7985 4.9086 -5.5017
v  71.0115 4.8850 -5.5017
v  71.2518 5.9936 -6.0017
v  71.3820 5.8471 -6.0017
v  71.0115 0.0000 -5.5017
v  70.7985 0.0000 -5.5017
v  74.3002 0.0000 -5.4923
v  74.3002 0.0000 -5.9923
v  74.3002 0.7845 -5.9923
v  74.3002 0.7845 -5.4923
v  70.7985 0.0000 -5.9923
v  70.7985 0.7845 -5.9923
v  70.7985 0.7845 -5.4923
v  70.7985 0.0000 -5.4923
v  72.3069 3.9242 -5.6251
v  74.0214 3.8850 -5.6112
v  74.0214 3.8850 -5.4771
v  72.3069 3.9242 -5.4911
v  74.0214 4.1850 -5.4771
v  74.0214 4.1850 -5.6112
v  72.3069 4.1459 -5.6251
v  72.3069 4.1459 -5.4911
v  74.3069 3.8850 -5.3882
v  74.3069 3.8850 -5.5223
v  74.3069 4.1850 -5.5223
v  74.3069 4.1850 -5.3882
v  74.0872 3.8850 -5.5223
v  74.0872 4.1850 -5.5223
v  74.0872 3.8850 -5.3882
v  74.0872 4.1850 -5.3882
v  72.3069 2.1032 -5.6251
v  74.0214 2.0641 -5.6112
v  74.0214 2.0641 -5.4771
v  72.3069 2.1032 -5.4911
v  74.0214 2.3641 -5.4771
v  74.0214 2.3641 -5.6112
v  72.3069 2.3250 -5.6251
v  72.3069 2.3250 -5.4911
v  74.3069 2.0641 -5.3882
v  74.3069 2.0641 -5.5223
v  74.3069 2.3641 -5.5223
v  74.3069 2.3641 -5.3882
v  74.0872 2.0641 -5.5223
v  74.0872 2.3641 -5.5223
v  74.0872 2.0641 -5.3882
v  74.0872 2.3641 -5.3882
v  71.0170 3.1508 -5.5021
v  70.7973 3.1508 -5.5021
v  70.7973 3.4028 -5.5021
v  71.0170 3.4028 -5.5021
v  71.0170 3.1508 -5.3680
v  70.7973 3.1508 -5.3680
v  70.7973 3.4028 -5.3680
v  71.0170 3.4028 -5.3680
v  71.0828 3.1508 -5.5910
v  71.0828 3.4028 -5.5910
v  71.0828 3.1508 -5.4569
v  71.0828 3.4028 -5.4569
v  70.7116 3.1508 -5.4569
v  70.7116 3.1508 -5.5910
v  70.7116 3.4028 -5.5910
v  70.7116 3.4028 -5.4569
v  70.4454 3.1838 -5.4961
v  70.4454 3.1838 -5.6158
v  71.7529 3.1838 -5.6158
v  71.7529 3.1838 -5.4961
v  70.4454 3.3698 -5.4961
v  71.7529 3.3698 -5.4961
v  71.7529 3.3698 -5.6158
v  70.4454 3.3698 -5.6158
v  71.2900 2.9035 -5.4932
v  71.2900 2.9035 -5.6932
v  71.4900 2.9035 -5.6932
v  71.4900 2.9035 -5.4932
v  71.2900 3.0535 -5.4932
v  71.4900 3.0535 -5.4932
v  71.4900 3.0535 -5.6932
v  71.2900 3.0535 -5.6932
v  71.5300 2.4489 -5.5591
v  71.6785 2.7082 -5.5852
v  71.6814 2.7132 -5.5188
v  71.5329 2.4539 -5.4927
v  71.5274 2.9670 -5.5982
v  71.5303 2.9721 -5.5318
v  71.2277 2.9665 -5.5851
v  71.2306 2.9716 -5.5187
v  71.0791 2.7072 -5.5590
v  71.0820 2.7123 -5.4926
v  71.2303 2.4484 -5.5460
v  71.2331 2.4534 -5.4796
v  71.5009 2.4987 -5.5616
v  71.6209 2.7081 -5.5827
v  71.2589 2.4983 -5.5510
v  71.1368 2.7073 -5.5615
v  71.2568 2.9167 -5.5826
v  71.4988 2.9171 -5.5932
v  71.6238 2.7131 -5.5163
v  71.5038 2.5037 -5.4952
v  71.5017 2.9222 -5.5268
v  71.2597 2.9218 -5.5162
v  71.1397 2.7123 -5.4951
v  71.2617 2.5033 -5.4846
v  74.0872 0.0000 -5.7024
v  74.3002 0.0000 -5.7024
v  74.3002 4.9086 -5.7024
v  74.0872 4.8850 -5.7024
v  73.7167 5.8471 -6.2024
v  73.8469 5.9936 -6.2024
v  74.3002 4.9086 -6.2024
v  74.0872 4.8850 -6.2024
v  73.8469 5.9936 -5.7024
v  72.5493 6.5573 -5.7024
v  72.5493 6.3324 -5.7024
v  73.7167 5.8471 -5.7024
v  74.0872 0.0000 -6.2024
v  74.3002 0.0000 -6.2024
v  72.5493 6.5573 -6.2024
v  72.5493 6.3324 -6.2024
v  71.0115 0.0000 -5.7024
v  71.0115 4.8850 -5.7024
v  70.7985 4.9086 -5.7024
v  70.7985 0.0000 -5.7024
v  71.3820 5.8471 -6.2024
v  71.0115 4.8850 -6.2024
v  70.7985 4.9086 -6.2024
v  71.2518 5.9936 -6.2024
v  71.2518 5.9936 -5.7024
v  71.3820 5.8471 -5.7024
v  71.0115 0.0000 -6.2024
v  70.7985 0.0000 -6.2024
v  74.3002 0.0000 -6.2118
v  74.3002 0.7845 -6.2118
v  74.3002 0.7845 -5.7118
v  74.3002 0.0000 -5.7118
v  70.7985 0.0000 -5.7118
v  70.7985 0.7845 -5.7118
v  70.7985 0.0000 -6.2118
v  70.7985 0.7845 -6.2118
v  72.3069 3.9242 -6.0790
v  72.3069 3.9242 -6.2131
v  74.0214 3.8850 -6.2271
v  74.0214 3.8850 -6.0930
v  74.0214 4.1850 -6.2271
v  72.3069 4.1459 -6.2131
v  72.3069 4.1459 -6.0790
v  74.0214 4.1850 -6.0930
v  74.3069 3.8850 -6.3159
v  74.3069 4.1850 -6.3159
v  74.3069 4.1850 -6.1818
v  74.3069 3.8850 -6.1818
v  74.0872 3.8850 -6.1818
v  74.0872 4.1850 -6.1818
v  74.0872 3.8850 -6.3159
v  74.0872 4.1850 -6.3159
v  72.3069 2.1032 -6.0790
v  72.3069 2.1032 -6.2131
v  74.0214 2.0641 -6.2271
v  74.0214 2.0641 -6.0930
v  74.0214 2.3641 -6.2271
v  72.3069 2.3250 -6.2131
v  72.3069 2.3250 -6.0790
v  74.0214 2.3641 -6.0930
v  74.3069 2.0641 -6.3159
v  74.3069 2.3641 -6.3159
v  74.3069 2.3641 -6.1818
v  74.3069 2.0641 -6.1818
v  74.0872 2.0641 -6.1818
v  74.0872 2.3641 -6.1818
v  74.0872 2.0641 -6.3159
v  74.0872 2.3641 -6.3159
v  71.2900 2.9035 -6.2109
v  71.4900 2.9035 -6.2109
v  71.4900 2.9035 -6.0109
v  71.2900 2.9035 -6.0109
v  71.2900 3.0535 -6.2109
v  71.2900 3.0535 -6.0109
v  71.4900 3.0535 -6.0109
v  71.4900 3.0535 -6.2109
v  71.5300 2.4489 -6.1451
v  71.5329 2.4539 -6.2115
v  71.6814 2.7132 -6.1853
v  71.6785 2.7082 -6.1190
v  71.5303 2.9721 -6.1723
v  71.5274 2.9670 -6.1059
v  71.2306 2.9716 -6.1854
v  71.2277 2.9665 -6.1190
v  71.0820 2.7123 -6.2115
v  71.0791 2.7072 -6.1452
v  71.2331 2.4534 -6.2246
v  71.2303 2.4484 -6.1582
v  71.6209 2.7081 -6.1215
v  71.5009 2.4987 -6.1426
v  71.2589 2.4983 -6.1532
v  71.1368 2.7073 -6.1426
v  71.2568 2.9167 -6.1215
v  71.4988 2.9171 -6.1110
v  71.5038 2.5037 -6.2090
v  71.6238 2.7131 -6.1879
v  71.5017 2.9222 -6.1773
v  71.2597 2.9218 -6.1879
v  71.1397 2.7123 -6.2090
v  71.2617 2.5033 -6.2195
# 242 vertices

vn 0.0000 0.0000 -1.0000
vn 0.0000 0.0000 1.0000
vn 0.0000 -1.0000 -0.0000
vn 1.0000 0.0000 -0.0000
vn 0.9275 0.3738 -0.0000
vn 0.0000 1.0000 -0.0000
vn 0.3985 0.9172 -0.0000
vn -1.0000 0.0000 -0.0000
vn -0.9389 0.3443 -0.0000
vn -0.3985 0.9172 -0.0000
vn -0.0000 -0.0000 -1.0000
vn 0.0000 -0.0000 -1.0000
vn -0.0000 0.0000 -1.0000
vn 0.9227 0.3855 -0.0000
vn -0.0000 1.0000 -0.0000
vn -0.9332 -0.3594 0.0000
vn -0.9332 -0.3594 -0.0000
vn 0.0000 -1.0000 0.0000
vn -0.3839 -0.9234 0.0000
vn -0.9227 0.3855 -0.0000
vn 0.9332 -0.3594 0.0000
vn 0.9332 -0.3594 -0.0000
vn 0.3839 -0.9234 0.0000
vn -0.0228 -0.9997 -0.0000
vn -0.0228 0.9997 -0.0000
vn -0.0082 0.0000 1.0000
vn 0.8037 0.0000 -0.5950
vn -0.8037 0.0000 0.5950
vn 0.0082 0.0000 -1.0000
vn -0.8037 0.0000 -0.5950
vn 0.8037 0.0000 0.5950
vn 0.7198 0.0000 -0.6942
vn -0.7198 0.0000 0.6942
vn 0.8677 -0.4971 -0.0001
vn 0.8627 0.5000 -0.0755
vn -0.0049 0.9971 -0.0753
vn -0.8677 0.4971 0.0001
vn -0.8627 -0.5000 0.0755
vn 0.0049 -0.9971 0.0753
vn -0.0434 -0.0755 -0.9962
vn 0.0434 0.0755 0.9962
vn 0.9227 0.3855 0.0000
vn 0.3985 0.9172 0.0000
vn 0.0000 1.0000 0.0000
vn -0.3839 -0.9234 -0.0000
vn -0.9227 0.3855 0.0000
vn -0.3985 0.9172 0.0000
vn 0.3839 -0.9234 -0.0000
vn -0.0082 0.0000 -1.0000
vn 0.0082 0.0000 1.0000
vn 0.8677 -0.4971 0.0001
vn 0.8627 0.5000 0.0755
vn -0.0049 0.9971 0.0753
vn -0.8677 0.4971 -0.0001
vn -0.8627 -0.5000 -0.0755
vn 0.0049 -0.9971 -0.0753
vn -0.0434 -0.0755 0.9962
vn 0.0434 0.0755 -0.9962
# 58 vertex normals

vt 0.6934 0.7832 0.0000
vt 0.6934 0.8264 0.0000
vt 0.6678 0.8264 0.0000
vt 0.6678 0.7832 0.0000
vt 0.6934 0.8396 0.0000
vt 0.7191 0.8264 0.0000
vt 0.7191 0.8396 0.0000
vt 0.7191 0.7832 0.0000
vt 0.6678 0.8396 0.0000
vt 0.7301 0.8396 0.0000
vt 0.7301 0.7832 0.0000
vt 0.6568 0.7832 0.0000
vt 0.7301 0.8565 0.0000
vt 0.6568 0.8264 0.0000
vt 0.7191 0.8565 0.0000
vt 0.2903 0.7709 0.0000
vt 0.2903 0.8141 0.0000
vt 0.2871 0.8141 0.0000
vt 0.2871 0.7709 0.0000
vt 0.3353 0.8256 0.0000
vt 0.3353 0.8141 0.0000
vt 0.3384 0.8141 0.0000
vt 0.3384 0.8272 0.0000
vt 0.2871 0.8272 0.0000
vt 0.2903 0.8256 0.0000
vt 0.3128 0.8256 0.0000
vt 0.3128 0.8272 0.0000
vt 0.3494 0.8421 0.0000
vt 0.2851 0.7709 0.0000
vt 0.2762 0.7709 0.0000
vt 0.3494 0.8442 0.0000
vt 0.2762 0.8141 0.0000
vt 0.3384 0.8442 0.0000
vt 0.3384 0.7709 0.0000
vt 0.3353 0.7709 0.0000
vt 0.3535 0.8483 0.0000
vt 0.2803 0.7750 0.0000
vt 0.2803 0.7819 0.0000
vt 0.3418 0.8435 0.0000
vt 0.2913 0.7750 0.0000
vt 0.2913 0.7819 0.0000
vt 0.3426 0.7819 0.0000
vt 0.3426 0.7750 0.0000
vt 0.3169 0.7750 0.0000
vt 0.3535 0.8462 0.0000
vt 0.2901 0.8462 0.0000
vt 0.2901 0.7730 0.0000
vt 0.3535 0.7730 0.0000
vt 0.3437 0.7730 0.0000
vt 0.3437 0.8462 0.0000
vt 0.2803 0.8462 0.0000
vt 0.2803 0.7730 0.0000
vt 0.2882 0.7730 0.0000
vt 0.2882 0.8462 0.0000
vt 0.3456 0.8462 0.0000
vt 0.3456 0.7730 0.0000
vt 0.9729 0.8985 0.0000
vt 0.9729 0.9717 0.0000
vt 0.8996 0.9717 0.0000
vt 0.8996 0.8985 0.0000
vt 0.3474 0.7750 0.0000
vt 0.3474 0.8483 0.0000
vt 0.2741 0.8483 0.0000
vt 0.2741 0.7750 0.0000
vt 0.9566 0.8985 1.0000
vt 0.9688 0.8985 1.0000
vt 0.9688 0.9717 1.0000
vt 0.9566 0.9717 1.0000
vt 0.9810 0.8985 1.0000
vt 0.9810 0.9717 1.0000
vt 0.9078 0.8985 1.0000
vt 0.9200 0.8985 1.0000
vt 0.9200 0.9717 1.0000
vt 0.9078 0.9717 1.0000
vt 0.9322 0.8985 1.0000
vt 0.9322 0.9717 1.0000
vt 0.9444 0.8985 1.0000
vt 0.9444 0.9717 1.0000
vt 0.9066 0.9534 -0.2500
vt 0.9383 0.9717 -0.2500
vt 0.9700 0.9534 -0.2500
vt 0.9700 0.9168 -0.2500
vt 0.9383 0.8985 -0.2500
vt 0.9066 0.9168 -0.2500
vt 0.9383 0.9717 0.2500
vt 0.9066 0.9534 0.2500
vt 0.9066 0.9168 0.2500
vt 0.9383 0.8985 0.2500
vt 0.9700 0.9168 0.2500
vt 0.9700 0.9534 0.2500
vt 0.3535 0.7709 0.0000
vt 0.2803 0.7709 0.0000
vt 0.2803 0.8442 0.0000
vt 0.3535 0.8442 0.0000
vt 0.9546 0.8923 1.0000
vt 0.9546 0.9656 1.0000
vt 0.9668 0.9656 1.0000
vt 0.9668 0.8923 1.0000
vt 0.9790 0.9656 1.0000
vt 0.9790 0.8923 1.0000
vt 0.9057 0.8923 1.0000
vt 0.9057 0.9656 1.0000
vt 0.9179 0.9656 1.0000
vt 0.9179 0.8923 1.0000
vt 0.9301 0.9656 1.0000
vt 0.9301 0.8923 1.0000
vt 0.9424 0.9656 1.0000
vt 0.9424 0.8923 1.0000
vt 0.9045 0.9472 -0.2500
vt 0.9362 0.9656 -0.2500
vt 0.9680 0.9472 -0.2500
vt 0.9680 0.9106 -0.2500
vt 0.9362 0.8923 -0.2500
vt 0.9045 0.9106 -0.2500
vt 0.9362 0.9656 0.2500
vt 0.9045 0.9472 0.2500
vt 0.9045 0.9106 0.2500
vt 0.9362 0.8923 0.2500
vt 0.9680 0.9106 0.2500
vt 0.9680 0.9472 0.2500
# 120 texture coords

g door
usemtl Material__225
s 32
f 1/1/1 2/2/1 3/3/1 4/4/1 
s 8
f 5/5/2 6/2/2 7/6/2 8/7/2 
f 9/8/2 7/6/2 6/2/2 10/1/2 
s 32
f 11/9/1 3/3/1 2/2/1 12/5/1 
s 1
f 10/10/3 1/11/3 4/12/3 9/13/3 
s 2
f 9/13/4 4/12/4 3/14/4 7/14/4 
s 1
f 11/7/5 8/12/5 7/14/5 3/14/5 
s 2
f 12/15/6 5/4/6 8/12/7 11/7/7 
s 32
f 1/1/1 13/4/1 14/3/1 2/2/1 
s 8
f 5/5/2 15/7/2 16/6/2 6/2/2 
f 17/8/2 10/1/2 6/2/2 16/6/2 
s 32
f 18/9/1 12/5/1 2/2/1 14/3/1 
s 1
f 10/10/3 17/13/3 13/12/3 1/11/3 
s 2
f 17/13/8 16/14/8 14/14/8 13/12/8 
s 1
f 18/7/9 14/14/9 16/14/9 15/12/9 
s 2
f 12/15/6 18/7/10 15/12/10 5/4/6 
s 32
f 19/16/11 20/17/12 21/18/11 22/19/13 
s 8
f 23/20/2 24/21/2 25/22/2 26/23/2 
s 32
f 27/24/1 28/25/1 29/26/1 30/27/1 
s 1
f 31/28/3 19/29/3 22/30/3 32/31/3 
s 2
f 32/31/4 22/30/4 21/32/4 25/32/4 
s 1
f 27/23/14 26/30/14 25/32/14 21/32/14 
s 2
f 27/23/7 30/33/6 33/19/15 26/30/7 
s 8
f 32/34/2 25/22/2 24/21/2 31/35/2 
s 2
f 24/19/8 20/27/8 19/23/8 31/18/8 
s 1
f 20/27/16 24/19/17 23/24/16 28/28/16 
s 2
f 34/27/18 29/16/3 28/28/19 23/24/19 
s 8
f 33/27/2 34/26/2 23/20/2 26/23/2 
s 32
f 27/24/1 21/18/11 20/17/12 28/25/1 
f 35/16/12 36/19/1 37/18/12 38/17/11 
s 8
f 39/20/2 40/23/2 41/22/2 42/21/2 
s 32
f 43/24/1 30/27/1 29/26/1 44/25/1 
s 1
f 45/28/3 46/31/3 36/30/3 35/29/3 
s 2
f 46/31/8 41/32/8 37/32/8 36/30/8 
s 1
f 43/23/20 37/32/20 41/32/20 40/30/20 
s 2
f 43/23/10 40/30/10 33/19/15 30/33/6 
s 8
f 46/34/2 45/35/2 42/21/2 41/22/2 
s 2
f 42/19/4 45/18/4 35/23/4 38/27/4 
s 1
f 38/27/21 44/28/21 39/24/21 42/19/22 
s 2
f 34/27/18 39/24/23 44/28/23 29/16/3 
s 8
f 33/27/2 40/23/2 39/20/2 34/26/2 
s 32
f 43/24/1 44/25/1 38/17/11 37/18/12 
s 2
f 47/36/4 48/37/4 49/38/4 50/39/4 
s 32
f 51/40/1 52/41/1 49/41/1 48/40/1 
s 8
f 50/42/2 53/42/2 54/43/2 47/43/2 
s 1
f 54/36/3 51/37/3 48/37/3 47/36/3 
s 2
f 54/36/8 53/39/8 52/38/8 51/37/8 
s 1
f 49/44/6 52/44/6 53/44/6 50/44/6 
s off
f 55/45/24 56/46/24 57/47/24 58/48/24 
f 59/49/25 60/50/25 61/51/25 62/52/25 
f 57/49/26 59/50/26 62/51/26 58/52/26 
f 63/52/4 64/48/4 65/45/4 66/51/4 
f 67/53/1 68/54/1 65/51/1 64/52/1 
f 55/52/8 58/48/8 62/45/8 61/51/8 
f 64/51/3 63/52/3 69/53/3 67/54/3 
f 66/48/6 65/45/6 68/55/6 70/56/6 
f 63/48/2 66/45/2 70/55/2 69/56/2 
f 56/47/27 60/46/27 68/54/27 67/53/27 
f 67/54/3 69/53/3 57/47/3 56/46/3 
f 70/56/6 68/55/6 60/50/6 59/49/6 
f 69/56/28 70/55/28 59/50/28 57/49/28 
f 55/48/29 61/45/29 60/46/29 56/47/29 
f 71/45/24 72/46/24 73/47/24 74/48/24 
f 75/49/25 76/50/25 77/51/25 78/52/25 
f 73/49/26 75/50/26 78/51/26 74/52/26 
f 79/52/4 80/48/4 81/45/4 82/51/4 
f 83/53/1 84/54/1 81/51/1 80/52/1 
f 71/52/8 74/48/8 78/45/8 77/51/8 
f 80/51/3 79/52/3 85/53/3 83/54/3 
f 82/48/6 81/45/6 84/55/6 86/56/6 
f 79/48/2 82/45/2 86/55/2 85/56/2 
f 72/47/27 76/46/27 84/54/27 83/53/27 
f 83/54/3 85/53/3 73/47/3 72/46/3 
f 86/56/6 84/55/6 76/50/6 75/49/6 
f 85/56/28 86/55/28 75/50/28 73/49/28 
f 71/48/29 77/45/29 76/46/29 72/47/29 
f 87/53/1 88/52/1 89/51/1 90/54/1 
f 88/51/3 87/54/3 91/53/3 92/52/3 
f 93/48/6 94/56/6 90/55/6 89/45/6 
f 92/48/2 91/56/2 94/55/2 93/45/2 
f 95/47/30 87/53/30 90/54/30 96/46/30 
f 87/54/3 95/46/3 97/47/3 91/53/3 
f 94/56/6 98/49/6 96/50/6 90/55/6 
f 91/56/31 97/49/31 98/50/31 94/55/31 
f 92/52/3 99/52/3 100/48/3 88/48/3 
f 88/48/32 100/48/32 101/45/32 89/45/32 
f 89/45/6 101/45/6 102/51/6 93/51/6 
f 93/51/33 102/51/33 99/52/33 92/52/33 
f 101/45/8 100/48/8 99/52/8 102/51/8 
f 98/50/4 97/47/4 95/47/4 96/50/4 
s 2
f 103/57/3 104/58/3 105/59/3 106/60/3 
s 4
f 107/60/6 108/57/6 109/58/6 110/59/6 
s 8
f 103/60/2 106/57/2 108/58/2 107/59/2 
s 16
f 106/60/4 105/57/4 109/58/4 108/59/4 
s 32
f 105/60/12 104/57/12 110/58/12 109/59/12 
s 64
f 104/60/8 103/57/8 107/58/8 110/59/8 
s 2
f 111/61/3 112/62/3 113/63/3 114/64/3 
s 4
f 115/64/6 116/61/6 117/62/6 118/63/6 
s 8
f 111/64/2 114/61/2 116/62/2 115/63/2 
s 16
f 114/64/4 113/61/4 117/62/4 116/63/4 
s 32
f 113/64/1 112/61/1 118/62/1 117/63/1 
s 64
f 112/64/8 111/61/8 115/62/8 118/63/8 
s off
f 119/65/34 120/66/34 121/67/34 122/68/34 
f 120/66/35 123/69/35 124/70/35 121/67/35 
f 123/71/36 125/72/36 126/73/36 124/74/36 
f 125/72/37 127/75/37 128/76/37 126/73/37 
f 127/75/38 129/77/38 130/78/38 128/76/38 
f 129/77/39 119/65/39 122/68/39 130/78/39 
f 120/79/40 119/80/40 131/80/40 132/79/40 
f 119/80/40 129/81/40 133/81/40 131/80/40 
f 129/81/40 127/82/40 134/82/40 133/81/40 
f 127/82/40 125/83/40 135/83/40 134/82/40 
f 125/83/40 123/84/40 136/84/40 135/83/40 
f 123/84/40 120/79/40 132/79/40 136/84/40 
f 122/85/41 121/86/41 137/86/41 138/85/41 
f 121/86/41 124/87/41 139/87/41 137/86/41 
f 124/87/41 126/88/41 140/88/41 139/87/41 
f 126/88/41 128/89/41 141/89/41 140/88/41 
f 128/89/41 130/90/41 142/90/41 141/89/41 
f 130/90/41 122/85/41 138/85/41 142/90/41 
f 142/88/35 133/81/35 134/82/35 141/87/35 
f 141/87/34 134/82/34 135/83/34 140/86/34 
f 140/86/39 135/83/39 136/84/39 139/85/39 
f 139/85/38 136/84/38 132/69/38 137/80/38 
f 137/80/37 132/69/37 131/70/37 138/79/37 
f 138/79/36 131/70/36 133/81/36 142/88/36 
s 32
f 143/16/2 144/19/2 145/18/2 146/17/2 
s 8
f 147/20/1 148/23/1 149/22/1 150/21/1 
s 32
f 151/24/2 152/27/2 153/26/2 154/25/2 
s 1
f 155/28/3 156/31/3 144/30/3 143/29/3 
s 2
f 156/31/4 149/32/4 145/32/4 144/30/4 
s 1
f 151/23/42 145/32/14 149/32/42 148/30/42 
s 2
f 151/23/43 148/30/43 157/19/44 152/33/6 
s 8
f 156/34/1 155/35/1 150/21/1 149/22/1 
s 2
f 150/19/8 155/18/8 143/23/8 146/27/8 
s 1
f 146/27/17 154/28/17 147/24/17 150/19/17 
s 2
f 158/27/3 147/24/45 154/28/45 153/16/3 
s 8
f 157/27/1 148/23/1 147/20/1 158/26/1 
s 32
f 151/24/2 154/25/2 146/17/2 145/18/2 
f 159/16/2 160/17/2 161/18/2 162/19/2 
s 8
f 163/20/1 164/21/1 165/22/1 166/23/1 
s 32
f 167/24/2 168/25/2 153/26/2 152/27/2 
s 1
f 169/28/3 159/29/3 162/30/3 170/31/3 
s 2
f 170/31/8 162/30/8 161/32/8 165/32/8 
s 1
f 167/23/46 166/30/46 165/32/46 161/32/20 
s 2
f 167/23/47 152/33/6 157/19/44 166/30/47 
s 8
f 170/34/1 165/22/1 164/21/1 169/35/1 
s 2
f 164/19/4 160/27/4 159/23/4 169/18/4 
s 1
f 160/27/22 164/19/22 163/24/22 168/28/22 
s 2
f 158/27/3 153/16/3 168/28/48 163/24/48 
s 8
f 157/27/1 158/26/1 163/20/1 166/23/1 
s 32
f 167/24/2 161/18/2 160/17/2 168/25/2 
s 2
f 171/36/4 172/39/4 173/38/4 174/37/4 
s 32
f 175/40/2 174/40/2 173/41/2 176/41/2 
s 8
f 172/42/1 171/43/1 177/43/1 178/42/1 
s 1
f 177/36/3 171/36/3 174/37/3 175/37/3 
s 2
f 177/36/8 175/37/8 176/38/8 178/39/8 
s 1
f 173/44/6 172/44/6 178/44/6 176/44/6 
s off
f 179/45/24 180/48/24 181/47/24 182/46/24 
f 183/49/25 184/52/25 185/51/25 186/50/25 
f 181/49/49 180/52/49 184/51/49 183/50/49 
f 187/52/4 188/51/4 189/45/4 190/48/4 
f 191/53/2 190/52/2 189/51/2 192/54/2 
f 179/52/8 185/51/8 184/45/8 180/48/8 
f 190/51/3 191/54/3 193/53/3 187/52/3 
f 188/48/6 194/56/6 192/55/6 189/45/6 
f 187/48/1 193/56/1 194/55/1 188/45/1 
f 182/47/31 191/53/31 192/54/31 186/46/31 
f 191/54/3 182/46/3 181/47/3 193/53/3 
f 194/56/6 183/49/6 186/50/6 192/55/6 
f 193/56/30 181/49/30 183/50/30 194/55/30 
f 179/48/50 182/47/50 186/46/50 185/45/50 
f 195/45/24 196/48/24 197/47/24 198/46/24 
f 199/49/25 200/52/25 201/51/25 202/50/25 
f 197/49/49 196/52/49 200/51/49 199/50/49 
f 203/52/4 204/51/4 205/45/4 206/48/4 
f 207/53/2 206/52/2 205/51/2 208/54/2 
f 195/52/8 201/51/8 200/45/8 196/48/8 
f 206/51/3 207/54/3 209/53/3 203/52/3 
f 204/48/6 210/56/6 208/55/6 205/45/6 
f 203/48/1 209/56/1 210/55/1 204/45/1 
f 198/47/31 207/53/31 208/54/31 202/46/31 
f 207/54/3 198/46/3 197/47/3 209/53/3 
f 210/56/6 199/49/6 202/50/6 208/55/6 
f 209/56/30 197/49/30 199/50/30 210/55/30 
f 195/48/50 198/47/50 202/46/50 201/45/50 
s 2
f 211/91/3 212/92/3 213/93/3 214/94/3 
s 4
f 215/92/6 216/93/6 217/94/6 218/91/6 
s 8
f 211/92/1 215/93/1 218/94/1 212/91/1 
s 16
f 212/92/4 218/93/4 217/94/4 213/91/4 
s 32
f 213/92/2 217/93/2 216/94/2 214/91/2 
s 64
f 214/92/8 216/93/8 215/94/8 211/91/8 
s off
f 219/95/51 220/96/51 221/97/51 222/98/51 
f 222/98/52 221/97/52 223/99/52 224/100/52 
f 224/101/53 223/102/53 225/103/53 226/104/53 
f 226/104/54 225/103/54 227/105/54 228/106/54 
f 228/106/55 227/105/55 229/107/55 230/108/55 
f 230/108/56 229/107/56 220/96/56 219/95/56 
f 222/109/57 231/109/57 232/110/57 219/110/57 
f 219/110/57 232/110/57 233/111/57 230/111/57 
f 230/111/57 233/111/57 234/112/57 228/112/57 
f 228/112/57 234/112/57 235/113/57 226/113/57 
f 226/113/57 235/113/57 236/114/57 224/114/57 
f 224/114/57 236/114/57 231/109/57 222/109/57 
f 220/115/58 237/115/58 238/116/58 221/116/58 
f 221/116/58 238/116/58 239/117/58 223/117/58 
f 223/117/58 239/117/58 240/118/58 225/118/58 
f 225/118/58 240/118/58 241/119/58 227/119/58 
f 227/119/58 241/119/58 242/120/58 229/120/58 
f 229/120/58 242/120/58 237/115/58 220/115/58 
f 242/118/52 241/117/52 234/112/52 233/111/52 
f 241/117/51 240/116/51 235/113/51 234/112/51 
f 240/116/56 239/115/56 236/114/56 235/113/56 
f 239/115/55 238/110/55 231/100/55 236/114/55 
f 238/110/54 237/109/54 232/99/54 231/100/54 
f 237/109/53 242/118/53 233/111/53 232/99/53 
# 216 polygons

