# ProBuilder 4.0.4
# https://unity3d.com/unity/features/worldbuilding/probuilder
# 06/09/2019 15:03:40

mtllib ./Roof4.mtl
o Roof4

g Roof4
v -32.35561 -116.1839 -75.31258
v -39.47892 -116.1839 -75.31258
v -32.35561 -116.1839 -68.17216
v -39.47892 -116.1839 -68.17216
v -28.837 -119.17 -78.83873
v -42.99754 -119.17 -78.83873
v -29.12021 -119.1701 -78.47861
v -42.65343 -119.1701 -78.47861
v -28.837 -119.17 -64.646
v -29.12021 -119.1701 -64.9918
v -42.99754 -119.17 -64.646
v -42.65343 -119.1701 -64.9918
v -29.10769 -118.5468 -78.56742
v -42.72684 -118.5468 -78.56742
v -29.10769 -118.5468 -64.91731
v -42.72684 -118.5468 -64.91731
v -30.05707 -118.5469 -77.61588
v -41.77747 -118.5469 -77.61588
v -30.05707 -118.5469 -65.86885
v -41.77747 -118.5469 -65.86885
v -30.69114 -117.3091 -77.20471
v -41.14339 -117.3091 -77.20471
v -31.27637 -116.444 -76.64603
v -40.55816 -116.444 -76.64603
v -30.46731 -117.3091 -66.50385
v -30.46731 -117.3091 -76.98089
v -31.02472 -116.444 -67.09035
v -31.02472 -116.444 -76.39438
v -41.36722 -117.3091 -76.98089
v -41.36722 -117.3091 -66.50385
v -40.80982 -116.444 -76.39438
v -40.80982 -116.444 -67.09035
v -41.14339 -117.3091 -66.28001
v -30.69114 -117.3091 -66.28001
v -40.55816 -116.444 -66.8387
v -31.27637 -116.444 -66.8387

vt -3.518609 -10.66657
vt -10.64192 -10.66657
vt -3.518609 -3.526157
vt -10.64192 -3.526157
vt 0 -14.19273
vt -14.16054 -14.19273
vt -0.2832108 -13.83261
vt -13.81643 -13.83261
vt 0 0
vt -0.2832108 -0.3457947
vt -14.16054 0
vt -13.81643 -0.3457947
vt -0.2832108 1.95109
vt -13.81643 1.95109
vt -0.2706928 2.580669
vt -13.88984 2.580669
vt -0.3457947 -0.005778349
vt -13.83261 -0.005778349
vt -0.2713089 0.6176307
vt -13.92142 0.6176307
vt 13.83261 1.615949
vt 0.3457947 1.615949
vt 13.92142 2.24354
vt 0.2713089 2.24354
vt 13.81643 -0.0411233
vt 0.2832108 -0.0411233
vt 13.88984 0.5865951
vt 0.2706928 0.5865951
vt -0.2706928 -13.92145
vt -13.88984 -13.92145
vt -1.942646 -12.2457
vt -12.21789 -12.2457
vt -0.2706588 -0.2713089
vt -1.942611 -1.947064
vt -13.88988 -0.2713089
vt -12.21792 -1.947064
vt -2.410519 -9.303163
vt -11.75002 -9.303163
vt -3.391997 -8.103021
vt -10.76854 -8.103021
vt -2.325382 -2.415546
vt -2.325382 -11.77718
vt -3.523695 -3.399256
vt -3.523695 -10.79347
vt -9.272804 -11.77718
vt -9.272804 -2.415546
vt -8.074491 -10.79347
vt -8.074491 -3.399256
vt -11.75002 -2.33007
vt -2.410519 -2.33007
vt -10.76854 -3.530212
vt -3.391997 -3.530212
vt -3.51861 -9.897411
vt -10.64192 -9.897411
vt -2.439375 -11.25601
vt -11.72116 -11.25601
vt -4.026106 -3.526154
vt -4.026106 -10.66657
vt -2.670025 -2.444351
vt -2.670025 -11.74837
vt -9.87142 -10.66657
vt -9.87142 -3.526154
vt -11.2275 -11.74837
vt -11.2275 -2.444351
vt -10.64192 -4.032693
vt -3.51861 -4.032693
vt -11.72116 -2.674096
vt -2.439375 -2.674096
vt 1.220066 0.9768412
vt 12.94047 0.9768412
vt 1.854137 2.281129
vt 12.30639 2.281129
vt -8.871733 -6.261064
vt -7.90536 -6.946003
vt -8.693207 -5.999668
vt -7.704635 -6.652111
vt -3.389171 -2.534524
vt -2.422797 -1.849581
vt -3.589898 -2.240633
vt -2.601327 -1.588186
vt -12.96988 0.9753184
vt -1.222847 0.9753184
vt -12.33488 2.279316
vt -1.857841 2.279316
vt -3.589899 -9.91245
vt -2.601328 -10.56489
vt -3.389172 -9.618559
vt -2.422798 -10.3035
vt 1.222847 -3.479683
vt 12.96988 -3.479683
vt 1.857841 -2.175683
vt 12.33488 -2.175683
vt -8.693279 -6.153363
vt -7.70471 -5.500922
vt -8.871806 -5.891975
vt -7.905436 -5.207031
vt -12.94047 -3.497338
vt -1.220066 -3.497338
vt -12.30639 -2.193047
vt -1.854137 -2.193047
vt -3.818451 -10.32954
vt -2.717547 -11.67064
vt -2.467338 -11.41755
vt -10.26048 -10.16773
vt -11.36138 -11.50883
vt -11.61159 -11.25573
vt -3.818451 -3.782321
vt -2.467338 -2.69432
vt -2.717547 -2.441223
vt -10.26048 -3.944134
vt -11.61159 -2.856133
vt -11.36138 -2.603035
vt -0.001966404 1.42059
vt 0.1556534 2.862246
vt -0.1608917 2.862246
vt 10.01491 -3.712835
vt 9.85729 -2.271178
vt 10.17383 -2.271178
vt -10.03366 -3.724542
vt -9.874752 -2.282886
vt -10.19129 -2.282886
vt 0.02063884 -8.857871
vt -0.1382748 -7.416213
vt 0.1782622 -7.416213

vn 0 -1 0
vn 0.0003232671 -0.9999999 0
vn 0 0.1410566 0.9900016
vn -0.9997984 0.0200798 0
vn 0.993136 0.116965 0
vn 0 0.1186611 -0.9929348
vn 0 -0.5425212 0.8400421
vn -0.8406034 -0.5416511 0
vn 0.8406059 -0.5416473 0
vn 0 -0.5425264 -0.8400387
vn 0 -0.9814961 0.1914821
vn -0.1918374 -0.9814267 0
vn 0.1918374 -0.9814267 0
vn 0 -0.9814961 -0.1914821
vn 0 -0.3152396 -0.9490121
vn 0.5164974 -0.682986 -0.5164886
vn -0.5164878 -0.682988 -0.5164956
vn -0.9492237 -0.314602 0
vn -0.5164887 -0.6829866 0.5164965
vn -0.5164829 -0.6829881 0.5165005
vn 0.9492219 -0.3146072 0
vn 0.5164887 -0.682986 0.5164975
vn 0 -0.3152449 0.9490104
vn -0.1065914 -0.9885728 0.106593
vn 0.1065914 -0.9885728 0.106593
vn -0.1065914 -0.9885728 -0.106593
vn 0.1065914 -0.9885728 -0.106593
vn -0.6071121 -0.5126694 -0.6071121
vn 0.6071163 -0.5126714 -0.607106
vn -0.6071012 -0.5126708 0.6071218
vn 0.6071054 -0.5126728 0.6071158

g Roof4
usemtl ProBuilderDefault
f 1/101/24 23/102/24 28/103/24
f 31/106/25 24/105/25 2/104/25
f 3/107/26 27/108/26 36/109/26
f 35/112/27 32/111/27 4/110/27
f 19/113/28 34/114/28 25/115/28
f 30/118/29 33/117/29 20/116/29
f 17/119/30 26/120/30 21/121/30
f 22/124/31 29/123/31 18/122/31
f 4/4/1 2/2/1 1/1/1
f 1/1/1 3/3/1 4/4/1
f 8/8/1 6/6/1 5/5/1
f 5/5/1 7/7/1 8/8/1
f 7/7/2 5/5/1 9/9/1
f 9/9/1 10/10/1 7/7/2
f 12/12/1 11/11/1 6/6/1
f 6/6/1 8/8/1 12/12/1
f 10/10/1 9/9/1 11/11/1
f 11/11/1 12/12/1 10/10/1
f 14/16/3 8/14/3 7/13/3
f 7/13/3 13/15/3 14/16/3
f 13/20/4 7/18/4 10/17/4
f 10/17/4 15/19/4 13/20/4
f 16/24/5 12/22/5 8/21/5
f 8/21/5 14/23/5 16/24/5
f 15/28/6 10/26/6 12/25/6
f 12/25/6 16/27/6 15/28/6
f 18/32/1 14/30/1 13/29/1
f 13/29/1 17/31/1 18/32/1
f 17/31/1 13/29/1 15/33/1
f 15/33/1 19/34/1 17/31/1
f 20/36/1 16/35/1 14/30/1
f 14/30/1 18/32/1 20/36/1
f 19/34/1 15/33/1 16/35/1
f 16/35/1 20/36/1 19/34/1
f 24/40/7 22/38/7 21/37/7
f 21/37/7 23/39/7 24/40/7
f 28/44/8 26/42/8 25/41/8
f 25/41/8 27/43/8 28/44/8
f 32/48/9 30/46/9 29/45/9
f 29/45/9 31/47/9 32/48/9
f 36/52/10 34/50/10 33/49/10
f 33/49/10 35/51/10 36/52/10
f 23/55/11 1/53/11 2/54/11
f 2/54/11 24/56/11 23/55/11
f 27/59/12 3/57/12 1/58/12
f 1/58/12 28/60/12 27/59/12
f 31/63/13 2/61/13 4/62/13
f 4/62/13 32/64/13 31/63/13
f 35/67/14 4/65/14 3/66/14
f 3/66/14 36/68/14 35/67/14
f 34/71/15 19/69/15 20/70/15
f 20/70/15 33/72/15 34/71/15
f 33/75/16 30/73/16 32/74/16
f 32/74/16 35/76/16 33/75/16
f 36/79/17 27/77/17 25/78/17
f 25/78/17 34/80/17 36/79/17
f 26/83/18 17/81/18 19/82/18
f 19/82/18 25/84/18 26/83/18
f 28/87/19 23/85/19 21/86/19
f 21/86/19 26/88/20 28/87/19
f 30/91/21 20/89/21 18/90/21
f 18/90/21 29/92/21 30/91/21
f 29/95/22 22/93/22 24/94/22
f 24/94/22 31/96/22 29/95/22
f 22/99/23 18/97/23 17/98/23
f 17/98/23 21/100/23 22/99/23

