# ProBuilder 4.0.4
# https://unity3d.com/unity/features/worldbuilding/probuilder
# 02/10/2019 19:34:31

mtllib ./dirt.mtl
o dirt

g dirt
v -2.11814 -18.65016 -9.977
v -1.173 -18.583 -9.977
v -1.074529 -18.583 -9.6095
v -0.9760573 -18.583 -9.242001
v -1.794572 -18.65016 -8.769431
v -0.7070286 -18.583 -8.972971
v -0.4379999 -18.583 -8.703943
v -0.9105698 -18.65016 -7.885428
v -0.0704999 -18.583 -8.605472
v 0.2970002 -18.583 -8.507
v 0.2970003 -18.65016 -7.56186
v 0.6645001 -18.583 -8.605472
v 1.032 -18.583 -8.703943
v 1.50457 -18.65016 -7.885428
v 1.301029 -18.583 -8.972972
v 1.570057 -18.583 -9.242001
v 2.388572 -18.65016 -8.769431
v 1.668529 -18.583 -9.6095
v 1.767 -18.583 -9.977
v 2.71214 -18.65016 -9.977
v 1.668529 -18.583 -10.3445
v 1.570057 -18.583 -10.712
v 2.388572 -18.65016 -11.18457
v 1.301029 -18.583 -10.98103
v 1.032 -18.583 -11.25006
v 1.50457 -18.65016 -12.06857
v 0.6645 -18.583 -11.34853
v 0.2970001 -18.583 -11.447
v 0.2970001 -18.65016 -12.39214
v -0.0704999 -18.583 -11.34853
v -0.4379998 -18.583 -11.25006
v -0.9105697 -18.65016 -12.06857
v -0.7070285 -18.583 -10.98103
v -0.9760572 -18.583 -10.712
v -1.794572 -18.65016 -11.18457
v -1.074529 -18.583 -10.3445
v -0.6244251 -18.36914 -9.98092
v -0.6173524 -18.42723 -9.732
v 0.2970001 -18.32478 -9.977
v -0.5413563 -18.36914 -9.533351
v -0.360085 -18.36914 -9.338953
v -0.1477785 -18.36914 -9.255613
v 0.0393194 -18.36914 -9.091731
v 0.2645971 -18.36914 -9.115487
v 0.5013837 -18.36914 -9.185863
v 0.7089268 -18.36914 -9.255625
v 0.8809966 -18.36914 -9.379758
v 1.029877 -18.36914 -9.539381
v 1.0647 -18.36914 -9.773428
v 1.089101 -18.36914 -9.977238
v 1.11509 -18.40789 -10.20968
v 1.027301 -18.4299 -10.42708
v 0.9663526 -18.36914 -10.64635
v 0.7989426 -18.36914 -10.75882
v 0.5420001 -18.40815 -10.89135
v 0.2970001 -18.41206 -10.87607
v 0.05200016 -18.36914 -10.89135
v -0.1552008 -18.30025 -10.77494
v -0.3723523 -18.36914 -10.64635
v -0.5044068 -18.36914 -10.44353
v -0.6173524 -18.36914 -10.222

vt 0.9120815 -0.009470963
vt -0.0354416 -0.009470963
vt -0.1336652 0.3580953
vt -0.2318889 0.7256616
vt 0.5893278 1.198316
vt 0.5982466 1.181842
vt -0.2226521 0.7086356
vt -0.4913175 0.9780272
vt -0.7599829 1.247419
vt -0.284562 2.067037
vt -0.2706228 2.055997
vt -0.7443857 1.235419
vt -1.111819 1.334139
vt -1.479252 1.432858
vt -1.477974 2.380381
vt -1.461494 2.376414
vt -1.460215 1.428892
vt -1.827648 1.330172
vt -2.195082 1.231452
vt -2.668845 2.05203
vt -2.651468 2.059113
vt -2.176047 1.239495
vt -2.444712 0.9701031
vt -2.713378 0.7007117
vt -3.534276 1.173918
vt -3.521933 1.194358
vt -2.700716 0.7217042
vt -2.798939 0.3541379
vt -2.897163 -0.01342849
vt -3.844687 -0.01342836
vt -3.844687 0.01342836
vt -2.897163 0.01342823
vt -2.798939 -0.3541379
vt -2.700716 -0.7217041
vt -3.521933 -1.194358
vt -3.534276 -1.173918
vt -2.713378 -0.7007115
vt -2.444712 -0.9701031
vt -2.176047 -1.239495
vt -2.651468 -2.059113
vt -2.668844 -2.05203
vt -2.195081 -1.231453
vt -1.827648 -1.330172
vt -1.460215 -1.428892
vt -1.461493 -2.376414
vt -1.477974 -2.380381
vt -1.479252 -1.432858
vt -1.111819 -1.334139
vt -0.7443857 -1.235419
vt -0.2706229 -2.055997
vt -0.2845621 -2.067037
vt -0.7599829 -1.247419
vt -0.4913176 -0.9780272
vt -0.2226522 -0.7086359
vt 0.5982466 -1.181843
vt 0.5893278 -1.198317
vt -0.231889 -0.7256618
vt -0.1336653 -0.3580954
vt -0.0354416 0.009470956
vt 0.9120815 0.009470956
vt -0.2510656 -0.04759098
vt -0.8328531 -0.04152445
vt -0.8098006 0.2118028
vt -0.3362228 0.3231184
vt -1.651972 0.009072175
vt -0.9046903 0.4079162
vt -0.42138 0.6938279
vt -0.2887338 0.6370204
vt -0.7562555 0.3270329
vt -0.9341959 0.5244689
vt -0.5528191 0.9109034
vt -1.587673 -0.08693122
vt -1.142601 0.613925
vt -0.8169044 1.184786
vt -0.7680794 1.148456
vt -1.072508 0.5683085
vt -1.259151 0.7312072
vt -1.134685 1.250127
vt -1.519298 -0.1393315
vt -1.48388 0.7113445
vt -1.50129 1.351797
vt -1.42854 1.290614
vt -1.380251 0.6499448
vt -1.616376 0.5773876
vt -1.795013 1.188468
vt -1.409249 -0.1991978
vt -1.823339 0.5059296
vt -2.161486 1.086322
vt -2.096414 1.102132
vt -1.743252 0.5309062
vt -1.913099 0.4038492
vt -2.361968 0.8297273
vt -1.329538 -0.1750168
vt -2.060056 0.2425288
vt -2.627521 0.5573223
vt -2.548291 0.6986284
vt -1.97295 0.3988309
vt -2.006794 0.1646416
vt -2.643996 0.330577
vt -1.250222 -0.03445072
vt -2.030509 -0.03924767
vt -2.7397 -0.03747451
vt -2.805651 0.1317952
vt -2.100654 0.1434097
vt -2.133071 -0.09142617
vt -2.708725 -0.2348333
vt -1.313152 0.1311174
vt -2.050545 -0.3118077
vt -2.611799 -0.6014617
vt -2.551798 -0.517094
vt -1.988324 -0.2328069
vt -1.914924 -0.4401675
vt -2.290132 -0.7930179
vt -1.253583 0.197343
vt -1.752096 -0.5578526
vt -2.028467 -1.068942
vt -2.200254 -1.072748
vt -1.965218 -0.5416154
vt -1.708649 -0.6804457
vt -1.83277 -1.168133
vt -1.462885 0.2192713
vt -1.463696 -0.667552
vt -1.465286 -1.263519
vt -1.475511 -1.208282
vt -1.477427 -0.6136183
vt -1.232924 -0.6119767
vt -1.108034 -1.114582
vt -1.478405 0.2592491
vt -1.026508 -0.4780189
vt -0.7405576 -1.020882
vt -0.8650628 -1.158797
vt -1.230164 -0.656774
vt -1.002728 -0.529901
vt -0.6137601 -0.8734732
vt -1.643816 0.0532774
vt -0.8793746 -0.3221309
vt -0.3624573 -0.5881498
vt -0.3251853 -0.7020526
vt -0.8371621 -0.4286441
vt -0.7284511 -0.2054732
vt -0.2304058 -0.3335831
vt -1.620557 0.02399849
vt -0.7216435 0.03511186
vt -0.1356263 0.03488646

vn -0.07087041 0.9973048 0.01898968
vn -0.05188079 0.9973048 0.05188077
vn -0.0189897 0.9973048 0.07087044
vn 0.0189897 0.9973048 0.07087039
vn 0.05188079 0.9973048 0.05188074
vn 0.07087043 0.9973048 0.0189897
vn 0.07087041 0.9973048 -0.0189897
vn 0.05188079 0.9973048 -0.05188077
vn 0.0189897 0.9973048 -0.07087044
vn -0.01898969 0.9973048 -0.0708704
vn -0.05188076 0.9973048 -0.05188078
vn -0.07087041 0.9973048 -0.01898968
vn -0.327362 0.9294205 0.1515284
vn -0.3527638 0.9089601 0.2221469
vn -0.3019602 0.9498808 0.08091
vn -0.4339401 0.7754722 0.08053929
vn -0.04813051 0.9988011 0.008933022
vn -0.8197498 0.5521432 0.1521456
vn -0.4790088 0.8748057 -0.0725644
vn -0.3904845 0.9123433 0.004172798
vn -0.2779415 0.9222761 0.2684971
vn -0.2797323 0.9239646 0.2608436
vn -0.2761507 0.9205877 0.2761506
vn -0.0151004 0.9993136 0.02139855
vn -0.0302008 0.9986272 0.0427971
vn 0 1 0
vn -0.1192231 0.9452728 0.3037188
vn -0.1976868 0.9329302 0.2899348
vn -0.1606551 0.9309648 0.3156624
vn -0.2192031 0.9430388 0.2502556
vn -0.1021071 0.9188909 0.3810692
vn -0.008626851 0.9992805 0.02538784
vn -0.0172537 0.998561 0.05077569
vn 0.0347704 0.943436 0.3297266
vn -0.03366835 0.9311634 0.3553979
vn 0.09162777 0.941529 0.32419
vn 0.09672199 0.9406053 0.3254327
vn 0.08653355 0.9424527 0.3229473
vn 0.008206371 0.9992551 0.02601966
vn 0.01641274 0.9985102 0.05203932
vn 0.1030222 0.9462819 0.3064917
vn 0.09477779 0.9443673 0.3147195
vn 0.2146336 0.9435283 0.2506164
vn 0.1863567 0.9479139 0.2583223
vn 0.2429106 0.9391427 0.2429104
vn 0.01803994 0.9992577 0.02040456
vn 0.03607989 0.9985153 0.04080911
vn 0.2463012 0.9415743 0.2297248
vn 0.2446059 0.9403585 0.2363176
vn 0.3278012 0.942064 0.06738587
vn 0.3431944 0.9378754 0.05106222
vn 0.312408 0.9462526 0.08370951
vn 0.02796231 0.9992032 0.003782144
vn 0.05592462 0.9984064 0.007564287
vn 0.3006488 0.9530554 0.03599528
vn 0.3065284 0.949654 0.05985239
vn 0.2912318 0.9510435 -0.1002063
vn 0.2985601 0.9462565 -0.1243409
vn 0.2839034 0.9558305 -0.07607175
vn 0.08986224 0.9846689 -0.1453508
vn 0.05532216 0.9884462 -0.1411159
vn 0.1244023 0.9808915 -0.1495857
vn 0.1828204 0.9680067 -0.1718713
vn 0.2333619 0.9619186 -0.1239715
vn 0.3180972 0.918041 -0.06539989
vn 0.3450368 0.9247892 0.1603577
vn 0.2911576 0.9112929 -0.2911575
vn -0.01729425 0.9537833 0.1865994
vn 0.1771701 0.9824702 0.05799299
vn -0.2117586 0.9250965 0.3152059
vn 0.2060817 0.92921 -0.3067558
vn 0.2486196 0.9202514 -0.2989566
vn 0.07186982 0.9313533 -0.3558214
vn 0.05404814 0.9246719 -0.3769093
vn 0.0896915 0.9380347 -0.3347334
vn -0.04611675 0.9832262 -0.1625023
vn -0.06241544 0.9933795 -0.09644424
vn -0.02981806 0.9730729 -0.2285604
vn -0.03319284 0.9574565 -0.2866621
vn 0.02824933 0.9477456 -0.3106977
vn 0.03801328 0.9265857 -0.3398632
vn 0.1825975 0.9418786 -0.2819981
vn -0.106571 0.9112929 -0.3977284
vn 0.2005338 0.9623191 -0.1672737
vn 0.2190398 0.9711497 -0.09428601
vn 0.1820278 0.9534885 -0.2402613
vn -0.001206544 0.8596554 -0.5108729
vn -0.05388876 0.8854741 -0.4543006
vn -0.3598101 0.8883251 -0.2755559
vn -0.4284629 0.8653573 -0.2599544
vn -0.2911574 0.9112929 -0.2911574
vn -0.2738926 0.9206367 -0.09722927
vn -0.1082101 0.9898855 0.09174544
vn -0.4395751 0.8513877 -0.286204
vn -0.3077112 0.9301475 -0.2003484
vn -0.2994343 0.9207202 -0.245753
vn -0.3623238 0.9207656 -0.1366233
vn -0.3269192 0.9302382 -0.1666755
vn -0.3977284 0.9112929 -0.1065711
vn -0.02401894 0.9993839 -0.006231371
vn -0.04803789 0.9987677 -0.01246274
vn -0.3632632 0.9316256 -0.01065731
vn -0.3804958 0.9214593 -0.05861419

g dirt
usemtl dirt
f 3/3/1 5/5/1 4/4/1
f 5/5/1 3/3/1 1/1/1
f 3/3/1 2/2/1 1/1/1
f 6/8/2 8/10/2 7/9/2
f 8/10/2 6/8/2 5/6/2
f 6/8/2 4/7/2 5/6/2
f 9/13/3 11/15/3 10/14/3
f 11/15/3 9/13/3 8/11/3
f 9/13/3 7/12/3 8/11/3
f 12/18/4 14/20/4 13/19/4
f 14/20/4 12/18/4 11/16/4
f 12/18/4 10/17/4 11/16/4
f 17/25/5 16/24/5 15/23/5
f 17/25/5 15/23/5 14/21/5
f 13/22/5 14/21/5 15/23/5
f 20/30/6 19/29/6 18/28/6
f 20/30/6 18/28/6 17/26/6
f 16/27/6 17/26/6 18/28/6
f 23/35/7 22/34/7 21/33/7
f 23/35/7 21/33/7 20/31/7
f 19/32/7 20/31/7 21/33/7
f 26/40/8 25/39/8 24/38/8
f 26/40/8 24/38/8 23/36/8
f 22/37/8 23/36/8 24/38/8
f 29/45/9 28/44/9 27/43/9
f 29/45/9 27/43/9 26/41/9
f 25/42/9 26/41/9 27/43/9
f 32/50/10 31/49/10 30/48/10
f 32/50/10 30/48/10 29/46/10
f 28/47/10 29/46/10 30/48/10
f 35/55/11 34/54/11 33/53/11
f 35/55/11 33/53/11 32/51/11
f 31/52/11 32/51/11 33/53/11
f 36/58/12 1/60/12 2/59/12
f 1/60/12 36/58/12 35/56/12
f 36/58/12 34/57/12 35/56/12
f 2/61/13 3/64/15 38/63/13
f 38/63/13 37/62/14 2/61/13
f 39/65/17 37/62/16 38/63/18
f 38/63/18 40/66/16 39/65/17
f 40/66/19 38/63/20 3/64/15
f 3/64/15 4/67/20 40/66/19
f 4/68/21 6/71/23 41/70/21
f 41/70/21 40/69/22 4/68/21
f 39/72/25 40/69/24 41/70/26
f 41/70/26 42/73/24 39/72/25
f 42/73/27 41/70/28 6/71/23
f 6/71/23 7/74/28 42/73/27
f 43/77/29 42/76/30 7/75/29
f 7/75/29 9/78/31 43/77/29
f 44/80/32 39/79/33 42/76/32
f 42/76/32 43/77/26 44/80/32
f 10/81/35 44/80/34 43/77/35
f 43/77/35 9/78/31 10/81/35
f 12/85/38 45/84/36 44/83/37
f 44/83/37 10/82/36 12/85/38
f 46/87/39 39/86/40 44/83/39
f 44/83/39 45/84/26 46/87/39
f 13/88/42 46/87/41 45/84/42
f 45/84/42 12/85/38 13/88/42
f 15/92/45 47/91/43 46/90/44
f 46/90/44 13/89/43 15/92/45
f 47/91/26 48/94/46 39/93/47
f 39/93/47 46/90/46 47/91/26
f 15/92/45 16/95/49 48/94/48
f 48/94/48 47/91/49 15/92/45
f 18/99/52 49/98/50 48/97/51
f 48/97/51 16/96/50 18/99/52
f 49/98/26 50/101/53 39/100/54
f 39/100/54 48/97/53 49/98/26
f 18/99/52 19/102/56 50/101/55
f 50/101/55 49/98/56 18/99/52
f 19/103/57 21/106/59 51/105/57
f 51/105/57 50/104/58 19/103/57
f 51/105/62 52/108/60 39/107/61
f 39/107/61 50/104/60 51/105/62
f 22/109/64 52/108/63 51/105/64
f 51/105/64 21/106/59 22/109/64
f 22/110/65 24/113/67 53/112/65
f 53/112/65 52/111/66 22/110/65
f 53/112/70 54/115/68 39/114/69
f 39/114/69 52/111/68 53/112/70
f 25/116/72 54/115/71 53/112/72
f 53/112/72 24/113/67 25/116/72
f 25/117/73 27/120/75 55/119/73
f 55/119/73 54/118/74 25/117/73
f 54/118/76 55/119/78 56/122/76
f 56/122/76 39/121/77 54/118/76
f 27/120/75 28/123/80 56/122/79
f 56/122/79 55/119/80 27/120/75
f 56/125/82 28/124/81 30/127/83
f 30/127/83 57/126/81 56/125/82
f 56/125/84 57/126/86 58/129/84
f 58/129/84 39/128/85 56/125/84
f 58/129/87 57/126/88 30/127/83
f 30/127/83 31/130/88 58/129/87
f 58/132/90 31/131/89 33/134/91
f 33/134/91 59/133/89 58/132/90
f 39/135/93 58/132/92 59/133/94
f 59/133/94 60/136/92 39/135/93
f 59/133/96 33/134/91 34/137/96
f 34/137/96 60/136/95 59/133/96
f 34/138/97 36/141/99 61/140/97
f 61/140/97 60/139/98 34/138/97
f 39/142/101 60/139/100 61/140/26
f 61/140/26 37/143/100 39/142/101
f 61/140/103 36/141/99 2/144/103
f 2/144/103 37/143/102 61/140/103

