# 3ds Max Wavefront OBJ Exporter v0.97b - (c)2007 guruware
# File Created: 02.11.2017 02:05:37

mtllib table.mtl

#
# object table
#

v  80.7932 -0.0000 7.0838
v  79.4061 -0.0000 7.0838
v  79.4061 -0.0000 6.8308
v  80.7932 -0.0000 6.8308
v  79.4061 0.8000 6.8308
v  79.4061 0.8000 7.2063
v  80.7932 0.8000 7.2063
v  80.7932 0.8000 6.8308
v  80.7932 0.5912 7.2584
v  79.4061 0.5912 7.2584
v  79.4061 0.8000 7.2914
v  80.7932 0.8000 7.2914
v  80.7932 -0.0000 11.0675
v  80.7932 -0.0000 11.3205
v  79.4061 -0.0000 11.3205
v  79.4061 -0.0000 11.0675
v  79.4061 0.8000 11.3205
v  80.7932 0.8000 11.3205
v  80.7932 0.8000 10.9451
v  79.4061 0.8000 10.9451
v  80.7932 0.5912 10.8929
v  79.4061 0.5912 10.8929
v  79.4061 0.8000 10.8599
v  80.7932 0.8000 10.8599
# 24 vertices

vn 0.0000 -1.0000 -0.0000
vn 0.0000 1.0000 -0.0000
vn -0.0000 0.0000 -1.0000
vn -1.0000 0.0000 0.0000
vn 0.0000 -0.2832 0.9591
vn 1.0000 0.0000 -0.0000
vn 0.0000 0.0000 1.0000
vn -0.0000 -0.2832 -0.9591
# 8 vertex normals

vt 0.3278 0.7907 0.0000
vt 0.2990 0.7907 0.0000
vt 0.2990 0.7883 0.0000
vt 0.3278 0.7883 0.0000
vt 0.3275 0.7893 0.0000
vt 0.3275 0.7917 0.0000
vt 0.2987 0.7917 0.0000
vt 0.2987 0.7893 0.0000
vt 0.3278 0.8171 0.0000
vt 0.2990 0.8171 0.0000
vt 0.3014 0.7883 0.0000
vt 0.3014 0.8171 0.0000
vt 0.7139 0.7898 0.0000
vt 0.6539 0.7898 0.0000
vt 0.6539 0.7887 0.0000
vt 0.7139 0.7887 0.0000
vt 0.6601 0.7837 0.0000
vt 0.6601 0.8437 0.0000
vt 0.6589 0.8437 0.0000
vt 0.6589 0.7837 0.0000
vt 0.3275 0.8181 0.0000
vt 0.3251 0.8181 0.0000
vt 0.3251 0.7893 0.0000
vt 0.7089 0.7837 0.0000
vt 0.7089 0.8437 0.0000
vt 0.7078 0.8437 0.0000
vt 0.7078 0.7837 0.0000
vt 0.3254 0.7883 0.0000
vt 0.3254 0.8171 0.0000
# 29 texture coords

g table
usemtl Material__225
s off
f 1/1/1 2/2/1 3/3/1 4/4/1 
f 5/5/2 6/6/2 7/7/2 8/8/2 
f 4/3/3 3/4/3 5/9/3 8/10/3 
f 2/11/4 6/12/4 5/10/4 3/3/4 
f 9/13/5 10/14/5 2/15/5 1/16/5 
f 11/13/2 12/14/2 7/15/2 6/16/2 
f 10/17/4 11/18/4 6/19/4 2/20/4 
f 4/5/6 8/21/6 7/22/6 1/23/6 
f 1/24/6 7/25/6 12/26/6 9/27/6 
f 13/1/1 14/4/1 15/3/1 16/2/1 
f 17/4/2 18/3/2 19/2/2 20/1/2 
f 14/3/7 18/10/7 17/9/7 15/4/7 
f 16/11/4 15/3/4 17/10/4 20/12/4 
f 21/13/8 13/16/8 16/15/8 22/14/8 
f 23/13/2 20/16/2 19/15/2 24/14/2 
f 22/17/4 16/20/4 20/19/4 23/18/4 
f 14/4/6 13/28/6 19/29/6 18/9/6 
f 13/24/6 21/27/6 24/26/6 19/25/6 
f 21/13/1 22/14/1 10/14/1 9/13/1 
f 24/14/2 12/14/2 11/13/2 23/13/2 
f 23/18/4 11/18/4 10/17/4 22/17/4 
f 12/26/6 24/26/6 21/27/6 9/27/6 
# 22 polygons

