# ProBuilder 4.0.4
# https://unity3d.com/unity/features/worldbuilding/probuilder
# 26/01/2020 18:28:28

mtllib ./Arch.mtl
o Arch

g Arch
v -16.9 8.49 -114.38
v -16.46413 12.07973 -114.38
v -16.9 8.49 -108.88
v -16.46413 12.07973 -108.88
v -15.49319 11.84042 -114.38
v -15.9 8.49 -114.38
v -15.49319 11.84042 -108.88
v -15.9 8.49 -108.88
v -15.18184 15.46085 -114.38
v -15.18184 15.46085 -108.88
v -14.29639 14.99612 -114.38
v -13.60237 14.99612 -108.88
v -13.12766 19.87371 -114.38
v -13.12766 19.87371 -108.88
v -10.42097 22.27163 -114.38
v -10.42097 22.27163 -108.88
v -7.219076 23.95211 -114.38
v -7.219076 23.95211 -108.88
v -6.864471 21.58023 -114.38
v -9.852907 20.01177 -114.38
v -6.864471 21.58023 -108.88
v -9.852907 20.01177 -108.88
v -3.708054 24.98635 -114.38
v -3.708054 24.98635 -108.88
v -3.587517 22.55678 -114.38
v -3.587517 22.55678 -108.88
v -0.09194946 24.98635 -114.38
v -0.09194946 24.98635 -108.88
v -0.2124863 22.55678 -114.38
v -0.2124863 22.55678 -108.88
v 3.419075 23.95211 -114.38
v 3.419075 23.95211 -108.88
v 3.064468 21.58023 -114.38
v 3.064468 21.58023 -108.88
v 6.620968 22.27163 -114.38
v 6.620968 22.27163 -108.88
v 6.052904 20.01178 -114.38
v 6.052904 20.01178 -108.88
v 9.32766 19.87371 -114.38
v 9.32766 19.87371 -108.88
v 11.38184 15.46085 -114.38
v 11.38184 15.46085 -108.88
v 12.66413 12.07974 -114.38
v 12.66413 12.07974 -108.88
v 11.69318 11.84042 -114.38
v 11.08793 14.99613 -114.38
v 11.69318 11.84042 -108.88
v 10.48539 14.99613 -108.88
v 13.1 8.489998 -114.38
v 13.1 8.489998 -108.88
v 12.1 8.489998 -114.38
v 12.1 8.489998 -108.88
v -11.97481 17.77372 -108.88
v -11.97481 17.77372 -114.38
v 8.579147 17.77372 -108.88
v 8.579147 17.77372 -114.38
v 11.83349 3.944432 -108.88
v 12.17397 3.944432 -114.38
v 7.538338 17.77372 -111.63
v 10.43951 6.722027 -114.38
v 9.588085 6.722027 -111.63
v 10.22637 6.722027 -108.88
v 9.297869 12.24787 -114.38
v 9.297871 12.24787 -111.63
v 9.297869 12.24787 -108.88
v -15.46375 3.545709 -114.38
v -14.76974 3.545708 -108.88
v -13.70815 6.323298 -114.38
v -13.27434 6.323298 -108.88
v -13.14218 6.323298 -111.63
v -11.03315 17.77372 -111.63
v -12.55849 12.04851 -114.38
v -12.55849 12.04851 -111.63
v -12.55849 12.04851 -108.88

vt -2.749992 -7.541964
vt -2.749992 -3.925864
vt 2.750008 -7.541964
vt 2.750008 -3.925864
vt 2.749992 -4.046403
vt 2.749992 -7.42143
vt -2.750008 -4.046403
vt -2.750008 -7.42143
vt -14.99999 2.750008
vt -13.99999 2.750008
vt -14.99999 -2.749992
vt -13.99999 -2.749992
vt -2.749992 -7.208732
vt -2.749992 -3.592631
vt 2.750008 -7.208732
vt 2.750008 -3.592631
vt 4.280281 -3.526626
vt 4.43011 -6.898325
vt -1.263333 -3.526626
vt -1.026618 -7.140809
vt -2.749992 -4.521929
vt -2.749992 0.3456151
vt 2.750008 -4.521929
vt 2.750008 0.3456151
vt 4.685444 -2.749992
vt 1.069342 -2.749992
vt 4.685444 2.750008
vt 1.069342 2.750008
vt 3.824551 -2.749992
vt 0.2084528 -2.749992
vt 3.824551 2.750008
vt 0.2084528 2.750008
vt -0.9967355 -2.749992
vt -4.37176 -2.749992
vt -0.9967355 2.750008
vt -4.37176 2.750008
vt 2.365348 -2.749992
vt -1.294835 -2.749992
vt 2.365348 2.750008
vt -1.294835 2.750008
vt 0.7505628 -2.749992
vt -2.668806 -2.749992
vt 0.7505628 2.750008
vt -2.668806 2.750008
vt 1.808044 -2.749992
vt -1.80806 -2.749992
vt 1.808044 2.750008
vt -1.80806 2.750008
vt 1.687523 -2.749992
vt -1.687508 -2.749992
vt 1.687523 2.750008
vt -1.687508 2.750008
vt 1.294818 -2.749992
vt -2.365366 -2.749992
vt 1.294818 2.750008
vt -2.365366 2.750008
vt 2.66882 -2.749992
vt -0.7505482 -2.749992
vt 2.66882 2.750008
vt -0.7505482 2.750008
vt -0.2084642 -2.749992
vt -3.82456 -2.749992
vt -0.2084642 2.750008
vt -3.82456 2.750008
vt 4.371775 -2.749992
vt 0.9967508 -2.749992
vt 4.371775 2.750008
vt 0.9967508 2.750008
vt -1.069358 -2.749992
vt -4.685459 -2.749992
vt -1.069358 2.750008
vt -4.685459 2.750008
vt 2.749992 0.3456115
vt 2.749992 -4.521934
vt -2.750008 0.3456115
vt -2.750008 -4.521934
vt 2.749992 -3.592639
vt 2.749992 -7.208738
vt -2.750008 -3.592639
vt -2.750008 -7.208738
vt -2.749992 -4.942656
vt -2.749992 -1.729434
vt 2.750008 -4.942656
vt 2.750008 -1.615938
vt 2.749992 -3.925864
vt 2.749992 -7.541969
vt -2.750008 -3.925864
vt -2.750008 -7.541969
vt -2.749992 -7.421431
vt -2.749992 -4.046399
vt 2.750008 -7.421431
vt 2.750008 -4.046399
vt 14.00001 2.750008
vt 15.00001 2.750008
vt 14.00001 -2.749992
vt 15.00001 -2.749992
vt -14.99999 -5.776031
vt -14.56412 -2.186296
vt -13.99999 -5.776031
vt -13.59318 -2.425612
vt 14.56412 -2.186296
vt 14.99999 -5.776031
vt 13.59318 -2.425612
vt 13.99999 -5.776031
vt -13.28183 1.194817
vt -11.70236 0.730093
vt 13.28183 1.194817
vt 12.39638 0.7300935
vt -11.22765 5.607677
vt -10.0748 3.507685
vt 11.22765 5.607677
vt 10.0748 3.507685
vt -8.520963 8.005596
vt -7.952898 5.745743
vt 8.520963 8.005596
vt 7.952898 5.745743
vt -5.319067 9.686081
vt -4.964462 7.314196
vt 5.319067 9.686081
vt 4.964462 7.314196
vt -1.808044 10.72032
vt -1.687508 8.290747
vt 1.808044 10.72032
vt 1.687508 8.290747
vt 10.47916 3.507689
vt -10.47916 3.507689
vt 12.3854 0.730094
vt -12.98794 0.730094
vt 15.00001 -5.776033
vt 14.00001 -5.776033
vt -15.00001 -5.776033
vt -14.00001 -5.776033
vt -1.38487 -0.793277
vt 4.148036 -0.793277
vt -1.238053 -11.92592
vt 4.266315 -11.89456
vt 5.38192 -2.749992
vt 2.007231 -2.749992
vt 2.007231 2.750008
vt 5.38192 2.750008
vt 4.612691 7.655462E-06
vt -3.453963 -16.40001
vt -3.366779 -13.13003
vt -0.5774578 -12.72559
vt 2.136982 -13.16615
vt 2.056199 -16.36389
vt -11.19788 -2.01816
vt -12.33952 -7.544007
vt -14.07398 -10.3216
vt -2.716602 1.765363
vt 0.03006905 1.935104
vt 0.0356694 -3.802558
vt -2.714317 -3.803975
vt 2.78337 1.768196
vt 2.785655 -3.801142
vt 2.788609 -9.404407
vt 0.03658993 -9.302597
vt -2.710684 -9.44171
vt 13.7335 -10.3216
vt 12.12639 -7.544002
vt 11.19788 -2.018156
vt -4.280281 -0.4766515
vt 1.263333 -0.476652
vt -4.426425 -11.98549
vt 1.117188 -11.98549
vt 3.940016 -12.80783
vt 4.119078 -16.08882
vt -1.423025 -16.02032
vt -1.575547 -12.87633
vt 1.146631 -12.65828
vt 2.749992 -0.5281882
vt 2.749992 -3.602559
vt -7.600318E-06 -3.01081
vt -2.750008 -3.602559
vt -2.750008 -0.5281882
vt 13.56374 -10.72032
vt 11.80814 -7.942733
vt 10.65848 -2.217524
vt -2.750008 2.14856
vt -7.614444E-06 2.27273
vt -7.611947E-06 -3.603622
vt -2.750008 -3.603622
vt 2.749992 2.14856
vt 2.749992 -3.603622
vt 2.749992 -9.430435
vt -7.610992E-06 -9.355804
vt -2.750008 -9.373232
vt -10.65848 -2.217524
vt -11.37434 -7.942733
vt -12.86973 -10.72032

vn -0.9927089 0.1205365 0
vn 0.9927089 -0.1205367 0
vn 0 -1 0
vn -0.9350162 0.354605 0
vn 0.9285755 -0.3521622 -0.1171718
vn 0.8931905 -0.4330684 -0.05858592
vn 0.8578054 -0.5139745 0
vn -0.9065887 0.4220153 0
vn -0.6631225 0.7485109 0
vn -0.4647233 0.885456 0
vn 0.4647233 -0.885456 0
vn -0.2825659 0.9592479 0
vn 0.2855939 -0.9583507 0
vn 0 1 0
vn 0.2825657 0.9592479 0
vn -0.2855939 -0.9583507 0
vn 0.4647236 0.8854558 0
vn -0.4647231 -0.885456 0
vn 0.6631222 0.7485112 0
vn 0.9065887 0.4220152 0
vn 0.9350161 0.3546053 0
vn -0.9820993 -0.188364 0
vn -0.9555911 -0.2719777 -0.0508917
vn -0.9290828 -0.3555914 -0.1017834
vn 0.9927089 0.1205366 0
vn -0.9927089 -0.1205365 0
vn 0 0 1
vn 0 0 -1
vn 0.9868245 0.120374 0.1081091
vn 0.9900737 0.1089936 0.08480104
vn 0.9933228 0.0976133 0.06149294
vn -0.6431753 -0.7259952 -0.2434266
vn -0.7381792 -0.6394962 -0.1217133
vn -0.7381792 -0.6394962 0.1217133
vn -0.6431753 -0.7259952 0.2434266
vn -0.7065113 -0.6683292 0
vn -0.7870641 -0.5839041 -0.1503311
vn -0.8203911 -0.5122908 -0.2540011
vn -0.8075764 -0.5529361 -0.03456591
vn -0.8486011 -0.4910002 0.1969645
vn -0.801169 -0.5732588 0.07515171
vn -0.9440001 -0.2071972 -0.1696238
vn -0.896353 -0.2854154 -0.3392483
vn -0.9916473 -0.128979 6.877881E-07
vn -0.9406363 -0.2120816 0.1756907
vn -0.9284121 -0.1207545 0.351382
vn -0.9528605 -0.3034087 -6.608863E-07
vn -0.9861751 -0.1657065 -6.839927E-07
vn -0.9795041 -0.1083997 0.1128993
vn -0.9728331 -0.05109284 0.2257993
vn -0.9679045 -0.123035 -0.1450806
vn -0.9371853 -0.1936229 -0.2901618
vn -0.9986237 -0.05244719 6.926268E-07
vn -0.987096 0.1006342 0.1245562
vn 0.8327968 -0.526377 -0.1713966
vn 0.8217798 -0.5513712 -0.1368511
vn 0.8452387 -0.5249922 -0.03001299
vn 0.8797144 -0.4736192 0.04227967
vn 0.8410913 -0.5254539 -0.07714086
vn 0.794405 -0.5670909 -0.1205785
vn 0.7042698 -0.6677181 -0.2411571
vn 0.76436 -0.6006333 0
vn 0.7042698 -0.6677181 0.2411571
vn 0.794405 -0.5670909 0.1205785
vn 0.9417022 -0.09600636 0.322459
vn 0.9539976 -0.1767258 0.1612295
vn 0.9662929 -0.2574453 4.463981E-08
vn 0.9539976 -0.1767258 -0.1612295
vn 0.9417022 -0.09600636 -0.322459
vn 0.9804284 -0.1968761 -1.70687E-08
vn 0.9775263 -0.1481194 -0.100293
vn 0.9746242 -0.09936277 -0.2005859
vn 0.9937081 -0.1013084 0.04775828
vn 0.9929909 -0.1126886 0.02387915
vn 0.9922736 -0.1240688 1.075648E-08

g Arch
usemtl MurMillieux
f 59/141/36 55/140/35 38/139/34
f 37/138/33 59/141/36 38/139/34
f 37/138/33 56/137/32 59/141/36
f 61/144/39 57/146/41 62/145/40
f 61/144/39 58/142/37 57/146/41
f 60/143/38 58/142/37 61/144/39
f 46/128/28 63/147/28 56/126/28
f 46/128/28 60/148/28 63/147/28
f 58/149/28 60/148/28 46/128/28
f 48/127/27 62/160/27 57/159/27
f 65/161/27 62/160/27 48/127/27
f 55/125/27 65/161/27 48/127/27
f 70/170/59 66/167/56 68/166/55
f 67/168/57 66/167/56 70/170/59
f 69/169/58 67/168/57 70/170/59
f 71/173/62 54/172/61 20/171/60
f 22/175/64 71/173/62 20/171/60
f 22/175/64 53/174/63 71/173/62
f 68/177/28 66/176/28 11/108/28
f 72/178/28 68/177/28 11/108/28
f 54/112/28 72/178/28 11/108/28
f 12/106/27 74/188/27 53/110/27
f 12/106/27 69/189/27 74/188/27
f 12/106/27 67/190/27 69/189/27
f 4/4/1 2/2/1 1/1/1
f 1/1/1 3/3/1 4/4/1
f 8/8/2 6/6/2 5/5/2
f 5/5/2 7/7/2 8/8/2
f 6/12/3 8/10/3 3/9/3
f 3/9/3 1/11/3 6/12/3
f 10/16/4 9/14/4 2/13/4
f 2/13/4 4/15/4 10/16/4
f 7/20/7 5/18/6 11/17/5
f 11/17/5 12/19/6 7/20/7
f 14/24/8 13/22/8 9/21/8
f 9/21/8 10/23/8 14/24/8
f 16/28/9 15/26/9 13/25/9
f 13/25/9 14/27/9 16/28/9
f 18/32/10 17/30/10 15/29/10
f 15/29/10 16/31/10 18/32/10
f 22/36/11 20/34/11 19/33/11
f 19/33/11 21/35/11 22/36/11
f 24/40/12 23/38/12 17/37/12
f 17/37/12 18/39/12 24/40/12
f 21/44/13 19/42/13 25/41/13
f 25/41/13 26/43/13 21/44/13
f 28/48/14 27/46/14 23/45/14
f 23/45/14 24/47/14 28/48/14
f 26/52/3 25/50/3 29/49/3
f 29/49/3 30/51/3 26/52/3
f 32/56/15 31/54/15 27/53/15
f 27/53/15 28/55/15 32/56/15
f 30/60/16 29/58/16 33/57/16
f 33/57/16 34/59/16 30/60/16
f 36/64/17 35/62/17 31/61/17
f 31/61/17 32/63/17 36/64/17
f 34/68/18 33/66/18 37/65/18
f 37/65/18 38/67/18 34/68/18
f 40/72/19 39/70/19 35/69/19
f 35/69/19 36/71/19 40/72/19
f 42/76/20 41/74/20 39/73/20
f 39/73/20 40/75/20 42/76/20
f 44/80/21 43/78/21 41/77/21
f 41/77/21 42/79/21 44/80/21
f 48/84/24 46/82/23 45/81/22
f 45/81/22 47/83/23 48/84/24
f 50/88/25 49/86/25 43/85/25
f 43/85/25 44/87/25 50/88/25
f 47/92/26 45/90/26 51/89/26
f 51/89/26 52/91/26 47/92/26
f 49/96/3 50/94/3 52/93/3
f 52/93/3 51/95/3 49/96/3
f 7/100/27 4/98/27 3/97/27
f 3/97/27 8/99/27 7/100/27
f 6/104/28 1/102/28 2/101/28
f 2/101/28 5/103/28 6/104/28
f 12/106/27 10/105/27 4/98/27
f 4/98/27 7/100/27 12/106/27
f 5/103/28 2/101/28 9/107/28
f 9/107/28 11/108/28 5/103/28
f 53/110/27 14/109/27 10/105/27
f 10/105/27 12/106/27 53/110/27
f 11/108/28 9/107/28 13/111/28
f 13/111/28 54/112/28 11/108/28
f 22/114/27 16/113/27 14/109/27
f 14/109/27 53/110/27 22/114/27
f 54/112/28 13/111/28 15/115/28
f 15/115/28 20/116/28 54/112/28
f 21/118/27 18/117/27 16/113/27
f 16/113/27 22/114/27 21/118/27
f 20/116/28 15/115/28 17/119/28
f 17/119/28 19/120/28 20/116/28
f 26/122/27 24/121/27 18/117/27
f 18/117/27 21/118/27 26/122/27
f 19/120/28 17/119/28 23/123/28
f 23/123/28 25/124/28 19/120/28
f 30/124/27 28/123/27 24/121/27
f 24/121/27 26/122/27 30/124/27
f 25/124/28 23/123/28 27/121/28
f 27/121/28 29/122/28 25/124/28
f 34/120/27 32/119/27 28/123/27
f 28/123/27 30/124/27 34/120/27
f 29/122/28 27/121/28 31/117/28
f 31/117/28 33/118/28 29/122/28
f 38/116/27 36/115/27 32/119/27
f 32/119/27 34/120/27 38/116/27
f 33/118/28 31/117/28 35/113/28
f 35/113/28 37/114/28 33/118/28
f 55/125/27 40/111/27 36/115/27
f 36/115/27 38/116/27 55/125/27
f 37/114/28 35/113/28 39/109/28
f 39/109/28 56/126/28 37/114/28
f 48/127/27 42/107/27 40/111/27
f 40/111/27 55/125/27 48/127/27
f 56/126/28 39/109/28 41/105/28
f 41/105/28 46/128/28 56/126/28
f 47/103/27 44/101/27 42/107/27
f 42/107/27 48/127/27 47/103/27
f 46/128/28 41/105/28 43/98/28
f 43/98/28 45/100/28 46/128/28
f 52/130/27 50/129/27 44/101/27
f 44/101/27 47/103/27 52/130/27
f 45/100/28 43/98/28 49/131/28
f 49/131/28 51/132/28 45/100/28
f 58/136/31 46/134/30 48/133/29
f 48/133/29 57/135/30 58/136/31
f 63/153/44 64/152/42 59/151/43
f 59/151/43 56/150/42 63/153/44
f 64/152/47 65/155/45 55/154/46
f 55/154/46 59/151/45 64/152/47
f 61/157/50 62/156/49 65/155/48
f 65/155/48 64/152/49 61/157/50
f 60/158/52 61/157/51 64/152/53
f 64/152/53 63/153/51 60/158/52
f 67/165/54 12/163/54 11/162/54
f 11/162/54 66/164/54 67/165/54
f 71/180/66 53/179/65 74/182/66
f 74/182/66 73/181/67 71/180/66
f 72/184/68 54/183/69 71/180/68
f 71/180/68 73/181/67 72/184/68
f 70/186/72 68/185/71 72/184/70
f 72/184/70 73/181/71 70/186/72
f 73/181/74 74/182/75 69/187/74
f 69/187/74 70/186/73 73/181/74

